<?xml version="1.0" standalone="no"?>
<!DOCTYPE svg PUBLIC "-//W3C//DTD SVG 20010904//EN"
 "http://www.w3.org/TR/2001/REC-SVG-20010904/DTD/svg10.dtd">
<svg version="1.0" xmlns="http://www.w3.org/2000/svg"
 width="512.000000pt" height="512.000000pt" viewBox="0 0 512.000000 512.000000"
 preserveAspectRatio="xMidYMid meet">
<metadata>
Created by potrace 1.11, written by Peter Selinger 2001-2013
</metadata>
<g transform="translate(0.000000,512.000000) scale(0.100000,-0.100000)"
fill="#000000" stroke="none">
<path d="M0 2560 l0 -2560 2560 0 2560 0 0 2560 0 2560 -2560 0 -2560 0 0
-2560z m1517 959 c145 -20 317 -88 408 -162 l29 -24 -41 -49 c-23 -27 -73 -80
-112 -118 l-70 -69 -40 36 c-129 116 -351 151 -503 80 -108 -51 -151 -112
-151 -214 0 -74 34 -135 101 -178 29 -18 134 -59 258 -99 279 -92 373 -139
461 -235 128 -138 150 -369 55 -565 -41 -86 -158 -199 -253 -245 -239 -117
-594 -109 -853 19 -81 40 -201 132 -201 155 0 8 43 52 95 98 52 47 105 93 117
104 l23 20 53 -50 c116 -110 298 -168 452 -143 174 28 268 120 268 265 0 72
-16 108 -72 158 -58 53 -114 78 -313 141 -279 89 -391 154 -475 276 -43 64
-64 132 -70 230 -10 161 28 264 140 375 55 55 92 82 157 113 157 76 357 106
537 81z m1143 -959 l0 -920 -175 0 -175 0 0 920 0 920 175 0 175 0 0 -920z
m1405 897 c263 -77 385 -228 373 -464 -5 -107 -34 -177 -99 -242 -56 -56 -102
-86 -175 -116 l-57 -23 55 -11 c137 -29 276 -130 324 -236 68 -148 43 -369
-55 -488 -104 -125 -226 -188 -434 -221 -76 -13 -183 -16 -502 -16 l-405 0 0
921 0 920 458 -3 c398 -3 465 -6 517 -21z"/>
<path d="M3440 2970 l0 -243 208 6 c227 6 283 16 358 68 102 70 118 243 31
326 -62 60 -134 76 -379 81 l-218 4 0 -242z"/>
<path d="M3440 2186 l0 -266 213 0 c147 0 233 5 281 15 181 38 267 153 236
315 -12 64 -49 115 -103 143 -80 41 -134 49 -384 54 l-243 5 0 -266z"/>
</g>
</svg>
