<?xml version="1.0" encoding="UTF-8" standalone="no"?><!DOCTYPE svg PUBLIC "-//W3C//DTD SVG 1.1//EN" "http://www.w3.org/Graphics/SVG/1.1/DTD/svg11.dtd"><svg width="100%" height="100%" viewBox="0 0 58 58" version="1.1" xmlns="http://www.w3.org/2000/svg" xmlns:xlink="http://www.w3.org/1999/xlink" xml:space="preserve" xmlns:serif="http://www.serif.com/" style="fill-rule:evenodd;clip-rule:evenodd;stroke-linejoin:round;stroke-miterlimit:1.41421;"><g><g><path d="M46.5,14l-14,-14l-31,0l0,58l45,0l0,-44Z" style="fill:#fff;fill-rule:nonzero;"/><g><path d="M11.5,23l25,0c0.552,0 1,-0.447 1,-1c0,-0.553 -0.448,-1 -1,-1l-25,0c-0.552,0 -1,0.447 -1,1c0,0.553 0.448,1 1,1Z" style="fill:#bbb;fill-rule:nonzero;"/><path d="M11.5,15l10,0c0.552,0 1,-0.447 1,-1c0,-0.553 -0.448,-1 -1,-1l-10,0c-0.552,0 -1,0.447 -1,1c0,0.553 0.448,1 1,1Z" style="fill:#bbb;fill-rule:nonzero;"/><path d="M36.5,29l-25,0c-0.552,0 -1,0.447 -1,1c0,0.553 0.448,1 1,1l25,0c0.552,0 1,-0.447 1,-1c0,-0.553 -0.448,-1 -1,-1Z" style="fill:#bbb;fill-rule:nonzero;"/><path d="M36.5,37l-25,0c-0.552,0 -1,0.447 -1,1c0,0.553 0.448,1 1,1l25,0c0.552,0 1,-0.447 1,-1c0,-0.553 -0.448,-1 -1,-1Z" style="fill:#bbb;fill-rule:nonzero;"/><path d="M36.5,45l-25,0c-0.552,0 -1,0.447 -1,1c0,0.553 0.448,1 1,1l25,0c0.552,0 1,-0.447 1,-1c0,-0.553 -0.448,-1 -1,-1Z" style="fill:#bbb;fill-rule:nonzero;"/></g><path d="M32.5,0l0,14l14,0l-14,-14Z" style="fill:#bbb;fill-rule:nonzero;"/></g><rect x="34.5" y="36" width="22" height="22" style="fill:#c00;"/><path d="M39.007,41.319l0,11.362l12.986,0l0,-11.362l-12.986,0Zm4.87,7.304l0,-2.435l3.246,0l0,2.435l-3.246,0Zm3.246,0.812l0,2.435l-3.246,0l0,-2.435l3.246,0Zm0,-6.493l0,2.435l-3.246,0l0,-2.435l3.246,0Zm-4.058,0l0,2.435l-3.246,0l0,-2.435l3.246,0Zm-3.246,3.246l3.246,0l0,2.435l-3.246,0l0,-2.435Zm8.116,0l3.246,0l0,2.435l-3.246,0l0,-2.435Zm0,-0.811l0,-2.435l3.246,0l0,2.435l-3.246,0Zm-8.116,4.058l3.246,0l0,2.435l-3.246,0l0,-2.435Zm8.116,2.435l0,-2.435l3.246,0l0,2.435l-3.246,0Z" style="fill:#fff;fill-rule:nonzero;"/></g></svg>