<?xml version="1.0" encoding="UTF-8" standalone="no"?><!DOCTYPE svg PUBLIC "-//W3C//DTD SVG 1.1//EN" "http://www.w3.org/Graphics/SVG/1.1/DTD/svg11.dtd"><svg width="100%" height="100%" viewBox="0 0 58 58" version="1.1" xmlns="http://www.w3.org/2000/svg" xmlns:xlink="http://www.w3.org/1999/xlink" xml:space="preserve" xmlns:serif="http://www.serif.com/" style="fill-rule:evenodd;clip-rule:evenodd;stroke-linejoin:round;stroke-miterlimit:1.41421;"><g><g><path d="M46.5,14l-14,-14l-31,0l0,58l45,0l0,-44Z" style="fill:#fff;fill-rule:nonzero;"/><g><path d="M11.5,23l25,0c0.552,0 1,-0.447 1,-1c0,-0.553 -0.448,-1 -1,-1l-25,0c-0.552,0 -1,0.447 -1,1c0,0.553 0.448,1 1,1Z" style="fill:#bbb;fill-rule:nonzero;"/><path d="M11.5,15l10,0c0.552,0 1,-0.447 1,-1c0,-0.553 -0.448,-1 -1,-1l-10,0c-0.552,0 -1,0.447 -1,1c0,0.553 0.448,1 1,1Z" style="fill:#bbb;fill-rule:nonzero;"/><path d="M36.5,29l-25,0c-0.552,0 -1,0.447 -1,1c0,0.553 0.448,1 1,1l25,0c0.552,0 1,-0.447 1,-1c0,-0.553 -0.448,-1 -1,-1Z" style="fill:#bbb;fill-rule:nonzero;"/><path d="M36.5,37l-25,0c-0.552,0 -1,0.447 -1,1c0,0.553 0.448,1 1,1l25,0c0.552,0 1,-0.447 1,-1c0,-0.553 -0.448,-1 -1,-1Z" style="fill:#bbb;fill-rule:nonzero;"/><path d="M36.5,45l-25,0c-0.552,0 -1,0.447 -1,1c0,0.553 0.448,1 1,1l25,0c0.552,0 1,-0.447 1,-1c0,-0.553 -0.448,-1 -1,-1Z" style="fill:#bbb;fill-rule:nonzero;"/></g><path d="M32.5,0l0,14l14,0l-14,-14Z" style="fill:#bbb;fill-rule:nonzero;"/></g><rect x="34.5" y="36" width="22" height="22" style="fill:#c00;"/><g><rect x="44.673" y="39.8" width="1.654" height="13.231" style="fill:#fff;"/><path d="M45.5,54.2l-5.788,-5.546l1.22,-1.169l4.568,4.376l4.568,-4.376l1.22,1.169l-5.788,5.546Z" style="fill:#fff;fill-rule:nonzero;"/></g></g></svg>