<?xml version="1.0" encoding="UTF-8" standalone="no"?><!DOCTYPE svg PUBLIC "-//W3C//DTD SVG 1.1//EN" "http://www.w3.org/Graphics/SVG/1.1/DTD/svg11.dtd"><svg width="100%" height="100%" viewBox="0 0 58 58" version="1.1" xmlns="http://www.w3.org/2000/svg" xmlns:xlink="http://www.w3.org/1999/xlink" xml:space="preserve" xmlns:serif="http://www.serif.com/" style="fill-rule:evenodd;clip-rule:evenodd;stroke-linejoin:round;stroke-miterlimit:1.41421;"><g><g><path d="M46.5,14l-14,-14l-31,0l0,58l45,0l0,-44Z" style="fill:#fff;fill-rule:nonzero;"/><g><path d="M11.5,23l25,0c0.552,0 1,-0.447 1,-1c0,-0.553 -0.448,-1 -1,-1l-25,0c-0.552,0 -1,0.447 -1,1c0,0.553 0.448,1 1,1Z" style="fill:#bbb;fill-rule:nonzero;"/><path d="M11.5,15l10,0c0.552,0 1,-0.447 1,-1c0,-0.553 -0.448,-1 -1,-1l-10,0c-0.552,0 -1,0.447 -1,1c0,0.553 0.448,1 1,1Z" style="fill:#bbb;fill-rule:nonzero;"/><path d="M36.5,29l-25,0c-0.552,0 -1,0.447 -1,1c0,0.553 0.448,1 1,1l25,0c0.552,0 1,-0.447 1,-1c0,-0.553 -0.448,-1 -1,-1Z" style="fill:#bbb;fill-rule:nonzero;"/><path d="M36.5,37l-25,0c-0.552,0 -1,0.447 -1,1c0,0.553 0.448,1 1,1l25,0c0.552,0 1,-0.447 1,-1c0,-0.553 -0.448,-1 -1,-1Z" style="fill:#bbb;fill-rule:nonzero;"/><path d="M36.5,45l-25,0c-0.552,0 -1,0.447 -1,1c0,0.553 0.448,1 1,1l25,0c0.552,0 1,-0.447 1,-1c0,-0.553 -0.448,-1 -1,-1Z" style="fill:#bbb;fill-rule:nonzero;"/></g><path d="M32.5,0l0,14l14,0l-14,-14Z" style="fill:#bbb;fill-rule:nonzero;"/></g><rect x="34.5" y="36" width="22" height="22" style="fill:#c00;"/><path d="M53.625,50.838c-0.131,-0.723 -0.759,-1.668 -2.996,-2.085c-0.861,-0.161 -1.854,-0.219 -2.914,-0.176c-0.423,-0.413 -0.841,-0.864 -1.244,-1.345c-0.404,-0.48 -0.775,-0.97 -1.108,-1.459c0.226,-1.036 0.341,-2.024 0.332,-2.9c-0.022,-2.268 -0.839,-3.053 -1.527,-3.31c-0.433,-0.175 -0.931,-0.087 -1.277,0.226c-0.559,0.477 -1.058,1.493 -0.303,3.632c0.292,0.826 0.737,1.715 1.304,2.612c-0.146,0.572 -0.327,1.16 -0.542,1.749c-0.214,0.59 -0.453,1.157 -0.709,1.689c-1.011,0.323 -1.924,0.717 -2.678,1.162c-1.968,1.162 -2.228,2.269 -2.101,2.993l0.005,0.025c0.091,0.422 0.383,0.772 0.782,0.937l0.03,0.011c0.177,0.065 0.384,0.109 0.618,0.109c0.679,0 1.59,-0.367 2.694,-1.658c0.57,-0.665 1.116,-1.495 1.61,-2.435c0.569,-0.16 1.168,-0.296 1.786,-0.405c0.618,-0.109 1.228,-0.186 1.817,-0.23c0.785,0.714 1.583,1.307 2.346,1.738c1.981,1.118 3.07,0.798 3.635,0.328c0.362,-0.291 0.53,-0.752 0.44,-1.208Zm-12.676,1.32c-0.814,0.951 -1.43,1.222 -1.741,1.168c0.001,-0.316 0.375,-0.875 1.453,-1.511c0.278,-0.164 0.582,-0.321 0.908,-0.469c-0.203,0.295 -0.41,0.567 -0.62,0.812Zm3.327,-8.25c-0.155,-0.323 -0.287,-0.639 -0.394,-0.944c-0.417,-1.18 -0.344,-1.848 -0.141,-2.09c0.273,0.158 0.57,0.761 0.582,2.013c0.003,0.323 -0.013,0.665 -0.047,1.021Zm0.873,4.951c-0.272,0.047 -0.541,0.1 -0.806,0.158c0.103,-0.251 0.202,-0.506 0.297,-0.765c0.094,-0.259 0.182,-0.519 0.265,-0.777c0.165,0.214 0.337,0.428 0.515,0.639c0.177,0.212 0.357,0.418 0.54,0.618c-0.269,0.037 -0.54,0.079 -0.811,0.127Zm5.075,1.664c-0.282,-0.159 -0.569,-0.344 -0.86,-0.552c0.356,0.028 0.696,0.071 1.013,0.131c1.231,0.229 1.773,0.627 1.882,0.923c-0.274,0.157 -0.945,0.113 -2.035,-0.502Z" style="fill:#fff;fill-rule:nonzero;"/></g></svg>