<svg style="position: absolute; width: 0; height: 0; overflow: hidden;" version="1.1" xmlns="http://www.w3.org/2000/svg" xmlns:xlink="http://www.w3.org/1999/xlink">
    <defs>
        <symbol id="icon-chevron-with-circle-up" viewBox="0 0 20 20">
            <title>chevron-with-circle-up</title>
            <path d="M10.359 7.785c-0.199-0.196-0.52-0.196-0.717 0l-2.864 2.807c-0.199 0.195-0.198 0.514 0 0.71 0.197 0.196 0.518 0.196 0.717 0l2.505-2.302 2.506 2.302c0.198 0.196 0.518 0.196 0.718 0 0.197-0.196 0.197-0.515 0-0.71l-2.865-2.807zM10 0.4c-5.302 0-9.6 4.298-9.6 9.6 0 5.303 4.298 9.6 9.6 9.6s9.6-4.297 9.6-9.6c0-5.302-4.298-9.6-9.6-9.6zM10 18.354c-4.615 0-8.354-3.74-8.354-8.354s3.739-8.354 8.354-8.354c4.613 0 8.354 3.74 8.354 8.354s-3.741 8.354-8.354 8.354z"></path>
        </symbol>
        <symbol id="icon-chevron-with-circle-right" viewBox="0 0 20 20">
            <title>chevron-with-circle-right</title>
            <path d="M11 10l-2.302-2.506c-0.196-0.198-0.196-0.519 0-0.718 0.196-0.197 0.515-0.197 0.71 0l2.807 2.864c0.196 0.199 0.196 0.52 0 0.717l-2.807 2.864c-0.195 0.199-0.514 0.198-0.71 0-0.196-0.197-0.196-0.518 0-0.717l2.302-2.504zM10 0.4c5.302 0 9.6 4.298 9.6 9.6 0 5.303-4.298 9.6-9.6 9.6s-9.6-4.297-9.6-9.6c0-5.302 4.298-9.6 9.6-9.6zM10 18.354c4.613 0 8.354-3.74 8.354-8.354s-3.741-8.354-8.354-8.354c-4.615 0-8.354 3.74-8.354 8.354s3.739 8.354 8.354 8.354z"></path>
        </symbol>
        <symbol id="icon-chevron-with-circle-left" viewBox="0 0 20 20">
            <title>chevron-with-circle-left</title>
            <path d="M11.302 6.776c-0.196-0.197-0.515-0.197-0.71 0l-2.807 2.865c-0.196 0.199-0.196 0.52 0 0.717l2.807 2.864c0.195 0.199 0.514 0.198 0.71 0 0.196-0.197 0.196-0.518 0-0.717l-2.302-2.505 2.302-2.506c0.196-0.198 0.196-0.518 0-0.718zM10 0.4c-5.302 0-9.6 4.298-9.6 9.6 0 5.303 4.298 9.6 9.6 9.6s9.6-4.297 9.6-9.6c0-5.302-4.298-9.6-9.6-9.6zM10 18.354c-4.615 0-8.354-3.74-8.354-8.354s3.739-8.354 8.354-8.354c4.613 0 8.354 3.74 8.354 8.354s-3.741 8.354-8.354 8.354z"></path>
        </symbol>
        <symbol id="icon-chevron-with-circle-down" viewBox="0 0 20 20">
            <title>chevron-with-circle-down</title>
            <path d="M12.505 8.698l-2.505 2.302-2.506-2.302c-0.198-0.196-0.518-0.196-0.718 0-0.197 0.196-0.197 0.515 0 0.71l2.864 2.807c0.199 0.196 0.52 0.196 0.717 0l2.864-2.807c0.199-0.195 0.198-0.514 0-0.71-0.197-0.196-0.517-0.196-0.716 0zM10 0.4c-5.302 0-9.6 4.298-9.6 9.6 0 5.303 4.298 9.6 9.6 9.6s9.6-4.297 9.6-9.6c0-5.302-4.298-9.6-9.6-9.6zM10 18.354c-4.615 0-8.354-3.74-8.354-8.354s3.739-8.354 8.354-8.354c4.613 0 8.354 3.74 8.354 8.354s-3.741 8.354-8.354 8.354z"></path>
        </symbol>
        <symbol id="icon-chevron-thin-up" viewBox="0 0 20 20">
            <title>chevron-thin-up</title>
            <path d="M2.582 13.891c-0.272 0.268-0.709 0.268-0.979 0s-0.271-0.701 0-0.969l7.908-7.83c0.27-0.268 0.707-0.268 0.979 0l7.908 7.83c0.27 0.268 0.27 0.701 0 0.969s-0.709 0.268-0.978 0l-7.42-7.141-7.418 7.141z"></path>
        </symbol>
        <symbol id="icon-chevron-thin-right" viewBox="0 0 20 20">
            <title>chevron-thin-right</title>
            <path d="M13.25 10l-7.141-7.42c-0.268-0.27-0.268-0.707 0-0.979 0.268-0.27 0.701-0.27 0.969 0l7.83 7.908c0.268 0.271 0.268 0.709 0 0.979l-7.83 7.908c-0.268 0.271-0.701 0.27-0.969 0s-0.268-0.707 0-0.979l7.141-7.417z"></path>
        </symbol>
        <symbol id="icon-chevron-thin-left" viewBox="0 0 20 20">
            <title>chevron-thin-left</title>
            <path d="M13.891 17.418c0.268 0.272 0.268 0.709 0 0.979s-0.701 0.271-0.969 0l-7.83-7.908c-0.268-0.27-0.268-0.707 0-0.979l7.83-7.908c0.268-0.27 0.701-0.27 0.969 0s0.268 0.709 0 0.979l-7.141 7.419 7.141 7.418z"></path>
        </symbol>
        <symbol id="icon-chevron-thin-down" viewBox="0 0 20 20">
            <title>chevron-thin-down</title>
            <path d="M17.418 6.109c0.272-0.268 0.709-0.268 0.979 0s0.271 0.701 0 0.969l-7.908 7.83c-0.27 0.268-0.707 0.268-0.979 0l-7.908-7.83c-0.27-0.268-0.27-0.701 0-0.969s0.709-0.268 0.979 0l7.419 7.141 7.418-7.141z"></path>
        </symbol>
        <symbol id="icon-chevron-small-up" viewBox="0 0 20 20">
            <title>chevron-small-up</title>
            <path d="M6.582 12.141c-0.271 0.268-0.709 0.268-0.978 0s-0.272-0.701 0-0.969l3.908-3.83c0.27-0.268 0.707-0.268 0.979 0l3.908 3.83c0.27 0.267 0.27 0.701 0 0.969s-0.709 0.268-0.979 0l-3.42-3.141-3.418 3.141z"></path>
        </symbol>
        <symbol id="icon-chevron-small-right" viewBox="0 0 20 20">
            <title>chevron-small-right</title>
            <path d="M11 10l-3.141-3.42c-0.268-0.27-0.268-0.707 0-0.978 0.268-0.27 0.701-0.27 0.969 0l3.83 3.908c0.268 0.271 0.268 0.709 0 0.979l-3.83 3.908c-0.267 0.272-0.701 0.27-0.969 0s-0.268-0.707 0-0.978l3.141-3.419z"></path>
        </symbol>
        <symbol id="icon-chevron-small-left" viewBox="0 0 20 20">
            <title>chevron-small-left</title>
            <path d="M12.141 13.418c0.268 0.271 0.268 0.709 0 0.978s-0.701 0.272-0.969 0l-3.83-3.908c-0.268-0.27-0.268-0.707 0-0.979l3.83-3.908c0.267-0.27 0.701-0.27 0.969 0s0.268 0.709 0 0.978l-3.141 3.421 3.141 3.418z"></path>
        </symbol>
        <symbol id="icon-chevron-small-down" viewBox="0 0 20 20">
            <title>chevron-small-down</title>
            <path d="M13.418 7.859c0.271-0.268 0.709-0.268 0.978 0s0.272 0.701 0 0.969l-3.908 3.83c-0.27 0.268-0.707 0.268-0.979 0l-3.908-3.83c-0.27-0.267-0.27-0.701 0-0.969s0.709-0.268 0.978 0l3.421 3.141 3.418-3.141z"></path>
        </symbol>

        <symbol id="icon-add-circular-button" viewBox="0 0 32 32">
            <title>add-circular-button</title>
            <path d="M16 31.999c-8.823 0-16-7.177-16-15.999s7.177-16 16-16 16 7.177 16 16-7.179 15.999-16 15.999zM16 1.086c-8.224 0-14.915 6.691-14.915 14.915s6.691 14.915 14.915 14.915 14.915-6.691 14.915-14.915-6.691-14.915-14.915-14.915z"></path>
            <path d="M22.738 16.543h-13.475c-0.299 0-0.543-0.243-0.543-0.543s0.243-0.543 0.543-0.543h13.475c0.299 0 0.543 0.243 0.543 0.543s-0.242 0.543-0.542 0.543z"></path>
            <path d="M16 23.28c-0.299 0-0.543-0.243-0.543-0.543v-13.474c0-0.299 0.243-0.543 0.543-0.543s0.543 0.243 0.543 0.543v13.473c0 0.3-0.243 0.543-0.543 0.543z"></path>
        </symbol>
        
        <symbol id="icon-right-chevron" viewBox="0 0 32 32">
            <title>right-chevron</title>
            <path fill="#c00" style="fill: var(--color1, #c00)" d="M0.024 7.557v24.469h24.469v-24.469h-24.469zM9.681 26.68l-1.143-1.139 5.731-5.75-5.731-5.75 1.143-1.139 6.866 6.888-6.866 6.888z"></path>
        </symbol>
        
        <symbol id="icon-linkedin" viewBox="0 0 24 28">
            <title>linkedin</title>
            <path d="M5.453 9.766v15.484h-5.156v-15.484h5.156zM5.781 4.984c0.016 1.484-1.109 2.672-2.906 2.672v0h-0.031c-1.734 0-2.844-1.188-2.844-2.672 0-1.516 1.156-2.672 2.906-2.672 1.766 0 2.859 1.156 2.875 2.672zM24 16.375v8.875h-5.141v-8.281c0-2.078-0.75-3.5-2.609-3.5-1.422 0-2.266 0.953-2.641 1.875-0.125 0.344-0.172 0.797-0.172 1.266v8.641h-5.141c0.063-14.031 0-15.484 0-15.484h5.141v2.25h-0.031c0.672-1.062 1.891-2.609 4.672-2.609 3.391 0 5.922 2.219 5.922 6.969z"></path>
        </symbol>
        <symbol id="icon-twitter" viewBox="0 0 26 28">
            <title>twitter</title>
            <path d="M25.312 6.375c-0.688 1-1.547 1.891-2.531 2.609 0.016 0.219 0.016 0.438 0.016 0.656 0 6.672-5.078 14.359-14.359 14.359-2.859 0-5.516-0.828-7.75-2.266 0.406 0.047 0.797 0.063 1.219 0.063 2.359 0 4.531-0.797 6.266-2.156-2.219-0.047-4.078-1.5-4.719-3.5 0.313 0.047 0.625 0.078 0.953 0.078 0.453 0 0.906-0.063 1.328-0.172-2.312-0.469-4.047-2.5-4.047-4.953v-0.063c0.672 0.375 1.453 0.609 2.281 0.641-1.359-0.906-2.25-2.453-2.25-4.203 0-0.938 0.25-1.797 0.688-2.547 2.484 3.062 6.219 5.063 10.406 5.281-0.078-0.375-0.125-0.766-0.125-1.156 0-2.781 2.25-5.047 5.047-5.047 1.453 0 2.766 0.609 3.687 1.594 1.141-0.219 2.234-0.641 3.203-1.219-0.375 1.172-1.172 2.156-2.219 2.781 1.016-0.109 2-0.391 2.906-0.781z"></path>
        </symbol>
        <symbol id="icon-facebook" viewBox="0 0 16 28">
            <title>facebook</title>
            <path d="M14.984 0.187v4.125h-2.453c-1.922 0-2.281 0.922-2.281 2.25v2.953h4.578l-0.609 4.625h-3.969v11.859h-4.781v-11.859h-3.984v-4.625h3.984v-3.406c0-3.953 2.422-6.109 5.953-6.109 1.687 0 3.141 0.125 3.563 0.187z"></path>
        </symbol>
        <symbol id="icon-instagram" viewBox="0 0 24 28">
            <title>instagram</title>
            <path d="M16 14c0-2.203-1.797-4-4-4s-4 1.797-4 4 1.797 4 4 4 4-1.797 4-4zM18.156 14c0 3.406-2.75 6.156-6.156 6.156s-6.156-2.75-6.156-6.156 2.75-6.156 6.156-6.156 6.156 2.75 6.156 6.156zM19.844 7.594c0 0.797-0.641 1.437-1.437 1.437s-1.437-0.641-1.437-1.437 0.641-1.437 1.437-1.437 1.437 0.641 1.437 1.437zM12 4.156c-1.75 0-5.5-0.141-7.078 0.484-0.547 0.219-0.953 0.484-1.375 0.906s-0.688 0.828-0.906 1.375c-0.625 1.578-0.484 5.328-0.484 7.078s-0.141 5.5 0.484 7.078c0.219 0.547 0.484 0.953 0.906 1.375s0.828 0.688 1.375 0.906c1.578 0.625 5.328 0.484 7.078 0.484s5.5 0.141 7.078-0.484c0.547-0.219 0.953-0.484 1.375-0.906s0.688-0.828 0.906-1.375c0.625-1.578 0.484-5.328 0.484-7.078s0.141-5.5-0.484-7.078c-0.219-0.547-0.484-0.953-0.906-1.375s-0.828-0.688-1.375-0.906c-1.578-0.625-5.328-0.484-7.078-0.484zM24 14c0 1.656 0.016 3.297-0.078 4.953-0.094 1.922-0.531 3.625-1.937 5.031s-3.109 1.844-5.031 1.937c-1.656 0.094-3.297 0.078-4.953 0.078s-3.297 0.016-4.953-0.078c-1.922-0.094-3.625-0.531-5.031-1.937s-1.844-3.109-1.937-5.031c-0.094-1.656-0.078-3.297-0.078-4.953s-0.016-3.297 0.078-4.953c0.094-1.922 0.531-3.625 1.937-5.031s3.109-1.844 5.031-1.937c1.656-0.094 3.297-0.078 4.953-0.078s3.297-0.016 4.953 0.078c1.922 0.094 3.625 0.531 5.031 1.937s1.844 3.109 1.937 5.031c0.094 1.656 0.078 3.297 0.078 4.953z"></path>
        </symbol>
        <symbol id="icon-youtube" viewBox="0 0 28 28">
            <title>youtube</title>
            <path d="M11.109 17.625l7.562-3.906-7.562-3.953v7.859zM14 4.156c5.891 0 9.797 0.281 9.797 0.281 0.547 0.063 1.75 0.063 2.812 1.188 0 0 0.859 0.844 1.109 2.781 0.297 2.266 0.281 4.531 0.281 4.531v2.125s0.016 2.266-0.281 4.531c-0.25 1.922-1.109 2.781-1.109 2.781-1.062 1.109-2.266 1.109-2.812 1.172 0 0-3.906 0.297-9.797 0.297v0c-7.281-0.063-9.516-0.281-9.516-0.281-0.625-0.109-2.031-0.078-3.094-1.188 0 0-0.859-0.859-1.109-2.781-0.297-2.266-0.281-4.531-0.281-4.531v-2.125s-0.016-2.266 0.281-4.531c0.25-1.937 1.109-2.781 1.109-2.781 1.062-1.125 2.266-1.125 2.812-1.188 0 0 3.906-0.281 9.797-0.281v0z"></path>
        </symbol>
        <symbol id="icon-mail" viewBox="0 0 28 28">
            <title>email</title>
            <path d="M26 23.5v-12c-0.328 0.375-0.688 0.719-1.078 1.031-2.234 1.719-4.484 3.469-6.656 5.281-1.172 0.984-2.625 2.188-4.25 2.188h-0.031c-1.625 0-3.078-1.203-4.25-2.188-2.172-1.813-4.422-3.563-6.656-5.281-0.391-0.313-0.75-0.656-1.078-1.031v12c0 0.266 0.234 0.5 0.5 0.5h23c0.266 0 0.5-0.234 0.5-0.5zM26 7.078c0-0.391 0.094-1.078-0.5-1.078h-23c-0.266 0-0.5 0.234-0.5 0.5 0 1.781 0.891 3.328 2.297 4.438 2.094 1.641 4.188 3.297 6.266 4.953 0.828 0.672 2.328 2.109 3.422 2.109h0.031c1.094 0 2.594-1.437 3.422-2.109 2.078-1.656 4.172-3.313 6.266-4.953 1.016-0.797 2.297-2.531 2.297-3.859zM28 6.5v17c0 1.375-1.125 2.5-2.5 2.5h-23c-1.375 0-2.5-1.125-2.5-2.5v-17c0-1.375 1.125-2.5 2.5-2.5h23c1.375 0 2.5 1.125 2.5 2.5z"></path>
        </symbol>
        <symbol id="icon-phone-circle" viewBox="0 0 32 32">
            <title>phone-circle</title>
            <path d="M16 2c7.719 0 14 6.281 14 14s-6.281 14-14 14-14-6.281-14-14 6.281-14 14-14zM16 0c-8.836 0-16 7.164-16 16s7.164 16 16 16 16-7.164 16-16-7.164-16-16-16v0zM24.92 21.35l-0.090-0.273c-0.211-0.629-0.906-1.285-1.547-1.461l-2.365-0.646c-0.641-0.174-1.555 0.061-2.025 0.531l-0.855 0.855c-3.109-0.842-5.549-3.281-6.389-6.391l0.855-0.855c0.469-0.469 0.703-1.383 0.529-2.025l-0.645-2.365c-0.174-0.641-0.834-1.336-1.463-1.547l-0.27-0.090c-0.631-0.211-1.531 0.002-2 0.473l-1.281 1.281c-0.229 0.227-0.375 0.877-0.375 0.879-0.043 4.066 1.551 7.982 4.426 10.859 2.867 2.867 6.77 4.459 10.822 4.424 0.021 0 0.691-0.143 0.92-0.371l1.281-1.281c0.469-0.467 0.68-1.367 0.471-1.996z"></path>
        </symbol>
        
        <symbol id="icon-logout" viewBox="0 0 32 32">
            <title>logout</title>
            <path d="M0 7.9v16.199c0 2.232 1.821 4.053 4.053 4.053h13.092c2.232 0 4.053-1.821 4.053-4.053v-2.624c0-0.444-0.359-0.803-0.803-0.803s-0.803 0.359-0.803 0.803v2.624c0 1.351-1.103 2.454-2.454 2.454h-13.086c-1.351 0-2.454-1.103-2.454-2.454v-16.199c0-1.351 1.103-2.454 2.454-2.454h13.092c1.351 0 2.454 1.103 2.454 2.454v2.624c0 0.444 0.359 0.803 0.803 0.803s0.803-0.359 0.803-0.803v-2.624c0-2.232-1.821-4.053-4.053-4.053h-13.099c-2.232 0-4.053 1.814-4.053 4.053z"></path>
            <path d="M25.154 22.037c0.157 0.157 0.359 0.235 0.568 0.235s0.411-0.078 0.568-0.235l5.476-5.476c0.313-0.313 0.313-0.816 0-1.129l-5.476-5.476c-0.313-0.313-0.816-0.313-1.129 0s-0.313 0.816 0 1.129l4.112 4.112h-15.005c-0.444 0-0.803 0.359-0.803 0.803s0.359 0.803 0.803 0.803h14.998l-4.112 4.112c-0.313 0.307-0.313 0.816 0 1.123z"></path>
        </symbol>
        
        <symbol id="icon-linkedin-2" viewBox="0 0 24 28">
            <title>linkedin</title>
            <path d="M3.703 22.094h3.609v-10.844h-3.609v10.844zM7.547 7.906c-0.016-1.062-0.781-1.875-2.016-1.875s-2.047 0.812-2.047 1.875c0 1.031 0.781 1.875 2 1.875h0.016c1.266 0 2.047-0.844 2.047-1.875zM16.688 22.094h3.609v-6.219c0-3.328-1.781-4.875-4.156-4.875-1.937 0-2.797 1.078-3.266 1.828h0.031v-1.578h-3.609s0.047 1.016 0 10.844v0h3.609v-6.062c0-0.313 0.016-0.641 0.109-0.875 0.266-0.641 0.859-1.313 1.859-1.313 1.297 0 1.813 0.984 1.813 2.453v5.797zM24 6.5v15c0 2.484-2.016 4.5-4.5 4.5h-15c-2.484 0-4.5-2.016-4.5-4.5v-15c0-2.484 2.016-4.5 4.5-4.5h15c2.484 0 4.5 2.016 4.5 4.5z"></path>
        </symbol>
        <symbol id="icon-twitter-2" viewBox="0 0 24 28">
            <title>twitter</title>
            <path d="M20 9.531c-0.594 0.266-1.219 0.438-1.891 0.531 0.688-0.406 1.203-1.062 1.453-1.828-0.641 0.375-1.344 0.656-2.094 0.797-0.594-0.641-1.453-1.031-2.391-1.031-1.813 0-3.281 1.469-3.281 3.281 0 0.25 0.016 0.516 0.078 0.75-2.734-0.141-5.156-1.437-6.781-3.437-0.281 0.484-0.453 1.062-0.453 1.656 0 1.141 0.531 2.141 1.422 2.734-0.547-0.016-1.062-0.172-1.563-0.406v0.031c0 1.594 1.203 2.922 2.703 3.219-0.281 0.078-0.5 0.125-0.797 0.125-0.203 0-0.406-0.031-0.609-0.063 0.422 1.297 1.625 2.25 3.063 2.281-1.125 0.875-2.531 1.406-4.078 1.406-0.266 0-0.531-0.016-0.781-0.047 1.453 0.922 3.172 1.469 5.031 1.469 6.031 0 9.344-5 9.344-9.344 0-0.141 0-0.281-0.016-0.422 0.641-0.453 1.203-1.031 1.641-1.703zM24 6.5v15c0 2.484-2.016 4.5-4.5 4.5h-15c-2.484 0-4.5-2.016-4.5-4.5v-15c0-2.484 2.016-4.5 4.5-4.5h15c2.484 0 4.5 2.016 4.5 4.5z"></path>
        </symbol>
        <symbol id="icon-facebook-2" viewBox="0 0 24 28">
            <title>facebook</title>
            <path d="M19.5 2c2.484 0 4.5 2.016 4.5 4.5v15c0 2.484-2.016 4.5-4.5 4.5h-2.938v-9.297h3.109l0.469-3.625h-3.578v-2.312c0-1.047 0.281-1.75 1.797-1.75l1.906-0.016v-3.234c-0.328-0.047-1.469-0.141-2.781-0.141-2.766 0-4.672 1.687-4.672 4.781v2.672h-3.125v3.625h3.125v9.297h-8.313c-2.484 0-4.5-2.016-4.5-4.5v-15c0-2.484 2.016-4.5 4.5-4.5h15z"></path>
        </symbol>

        
        <symbol id="icon-waylens" viewBox="0 0 181 32">
            <title>waylens</title>
            <path fill="#ff4f00" d="M7.5000077,23.3333333 L12.4999974,20.4444444 L20.0000051,24.7777778 L7.5000077,32 L0,27.6666667 L0,10.3333333 L7.5000077,6 L37.4999923,23.3333333 L37.4999923,14.6666667 L32.5000026,17.5555556 L24.9999949,13.2222222 L37.4999923,6 L45,10.3333333 L45,27.6666667 L37.4999923,32 L7.5000077,14.6666667 L7.5000077,23.3333333 L7.5000077,23.3333333 Z"></path>
        </symbol>
        
        <symbol id="icon-b-google" viewBox="0 0 32 32">
            <title>b-google</title>
            <path fill="#4285f4" style="fill: var(--color1, #4285f4)" d="M16.32 13.714v5.486h9.074c-0.366 2.354-2.74 6.9-9.074 6.9-5.46 0-9.92-4.52-9.92-10.1s4.46-10.1 9.92-10.1c3.108 0 5.188 1.32 6.38 2.466l4.34-4.184c-2.788-2.602-6.4-4.182-10.72-4.182-8.846 0-16 7.154-16 16s7.154 16 16 16c9.234 0 15.36-6.492 15.36-15.634 0-1.052-0.114-1.852-0.252-2.652h-15.108z"></path>
        </symbol>
        <symbol id="icon-b-android" viewBox="0 0 32 32">
            <title>b-android</title>
            <path fill="#a4c639" style="fill: var(--color2, #a4c639)" d="M29.54 12.32c0-1.088-0.88-1.972-1.972-1.972s-1.976 0.884-1.976 1.976v8.27c0 1.092 0.886 1.974 1.98 1.976 1.088 0 1.972-0.884 1.972-1.976v-8.274zM7.174 10.726l0.004 12.816c0 1.18 0.94 2.12 2.1 2.12h1.42v4.38c0 1.1 0.88 1.98 1.96 1.98s1.96-0.88 1.98-1.96v-4.38h2.66v4.38c0 1.1 0.88 1.98 1.96 1.98 1.1 0 1.98-0.88 1.98-1.98v-4.38h1.44c1.16 0 2.1-0.94 2.1-2.1v-12.862l-17.66 0.004zM20.054 6.814c-0.414 0-0.748-0.332-0.748-0.746 0-0.408 0.334-0.746 0.746-0.748 0.408 0 0.744 0.34 0.744 0.746 0 0.412-0.334 0.746-0.744 0.746zM11.952 6.812c-0.412 0-0.746-0.332-0.746-0.744 0-0.41 0.334-0.746 0.744-0.746 0.414 0 0.748 0.34 0.748 0.76s-0.34 0.76-0.76 0.76zM20.338 2.962l1.38-2.52c0.080-0.14 0.020-0.3-0.1-0.38-0.14-0.060-0.3-0.020-0.38 0.12l-1.4 2.54c-1.158-0.542-2.478-0.842-3.858-0.842s-2.692 0.286-3.86 0.804l-1.38-2.54c-0.072-0.13-0.24-0.18-0.372-0.106-0.134 0.060-0.18 0.24-0.108 0.36l1.38 2.5c-2.71 1.4-4.54 4.060-4.54 7.12h17.792c0-3.060-1.828-5.72-4.534-7.12zM4.42 10.34c-1.092 0-1.976 0.888-1.976 1.98v8.268c0 1.094 0.886 1.976 1.98 1.976 1.088 0 1.972-0.88 1.972-1.976v-8.264c0-1.090-0.884-1.974-1.974-1.974z"></path>
        </symbol>
        <symbol id="icon-b-apple" viewBox="0 0 32 32">
            <title>b-apple</title>
            <path fill="#999" style="fill: var(--color3, #999)" d="M16.224 9.18c1.080 0 3.088-1.486 5.7-1.486 4.5 0 6.27 3.2 6.27 3.2s-3.46 1.77-3.46 6.064c0 4.84 4.31 6.5 4.31 6.5s-3.014 8.48-7.084 8.48c-1.87 0-3.324-1.26-5.294-1.26-2.008 0-4 1.3-5.296 1.3-3.72 0-8.414-8.060-8.414-14.52 0-6.38 3.976-9.7 7.704-9.7 2.42 0 4.304 1.38 5.564 1.38zM17.35 2.784c2.1-2.77 5.026-2.784 5.026-2.784s0.434 2.606-1.654 5.116c-2.22 2.68-4.76 2.24-4.76 2.24s-0.48-2.108 1.4-4.572z"></path>
        </symbol>
        <symbol id="icon-b-amazon" viewBox="0 0 32 32">
            <title>b-amazon</title>
            <path fill="#f90" style="fill: var(--color4, #f90)" d="M0.060 24.030c0.096-0.156 0.25-0.166 0.464-0.030 4.848 2.812 10.124 4.22 15.826 4.22 3.8 0 7.554-0.71 11.26-2.126l0.42-0.174c0.184-0.080 0.314-0.136 0.392-0.174 0.3-0.116 0.52-0.060 0.7 0.174 0.16 0.232 0.12 0.446-0.16 0.64-0.34 0.252-0.8 0.544-1.34 0.872-1.66 0.99-3.52 1.756-5.58 2.3-2.040 0.54-4.060 0.814-6.020 0.814-3.020 0-5.88-0.53-8.58-1.586s-5.102-2.546-7.242-4.466c-0.14-0.094-0.2-0.194-0.2-0.29 0-0.060 0.020-0.116 0.060-0.174zM8.812 15.74c0-1.34 0.33-2.484 0.99-3.434s1.56-1.668 2.72-2.154c1.060-0.446 2.34-0.766 3.88-0.96 0.52-0.060 1.38-0.136 2.56-0.232v-0.494c0-1.24-0.14-2.076-0.4-2.5-0.4-0.584-1.040-0.876-1.92-0.876h-0.242c-0.64 0.060-1.194 0.26-1.66 0.612-0.466 0.36-0.766 0.84-0.9 1.46-0.080 0.4-0.274 0.62-0.58 0.68l-3.36-0.42c-0.33-0.080-0.496-0.24-0.496-0.52 0-0.060 0.010-0.12 0.030-0.2 0.33-1.72 1.14-3 2.428-3.84 1.3-0.82 2.8-1.3 4.52-1.4h0.72c2.2 0 3.94 0.58 5.18 1.72 0.18 0.2 0.36 0.4 0.54 0.64 0.16 0.22 0.3 0.42 0.38 0.6 0.1 0.18 0.2 0.44 0.26 0.76 0.080 0.34 0.14 0.56 0.18 0.68 0.040 0.14 0.080 0.4 0.1 0.82s0.040 0.66 0.040 0.74v7.040c0 0.5 0.080 0.96 0.22 1.38s0.28 0.72 0.42 0.9l0.68 0.9c0.12 0.18 0.18 0.34 0.18 0.48 0 0.16-0.080 0.3-0.24 0.42-1.6 1.4-2.48 2.16-2.62 2.28-0.22 0.18-0.5 0.2-0.84 0.060-0.26-0.22-0.5-0.44-0.7-0.66l-0.42-0.46c-0.080-0.1-0.22-0.28-0.42-0.56l-0.4-0.58c-1.080 1.18-2.14 1.92-3.2 2.22-0.66 0.2-1.46 0.3-2.44 0.3-1.48 0-2.72-0.46-3.68-1.38s-1.44-2.22-1.44-3.92zM13.816 15.156c0 0.756 0.188 1.36 0.566 1.82 0.38 0.454 0.9 0.68 1.54 0.68 0.060 0 0.14-0.008 0.26-0.026 0.12-0.020 0.18-0.030 0.22-0.030 0.82-0.214 1.44-0.736 1.9-1.57 0.22-0.37 0.38-0.772 0.48-1.208 0.12-0.42 0.16-0.78 0.18-1.060 0.020-0.26 0.020-0.72 0.020-1.34v-0.72c-1.12 0-1.98 0.080-2.56 0.24-1.7 0.48-2.56 1.56-2.56 3.24zM26.032 24.524c0.040-0.080 0.1-0.156 0.174-0.234 0.486-0.328 0.952-0.552 1.4-0.668 0.734-0.18 1.452-0.3 2.15-0.32 0.194-0.020 0.38 0 0.552 0.040 0.874 0.080 1.4 0.22 1.572 0.44 0.080 0.12 0.116 0.3 0.116 0.52v0.2c0 0.68-0.184 1.48-0.552 2.4-0.37 0.92-0.884 1.66-1.54 2.24-0.1 0.080-0.186 0.12-0.264 0.12-0.040 0-0.080 0-0.116-0.020-0.12-0.060-0.146-0.16-0.088-0.32 0.72-1.68 1.076-2.86 1.076-3.52 0-0.2-0.040-0.36-0.116-0.46-0.194-0.22-0.736-0.34-1.63-0.34-0.328 0-0.716 0.020-1.16 0.060-0.488 0.060-0.934 0.12-1.34 0.18-0.12 0-0.194-0.020-0.234-0.060s-0.048-0.060-0.028-0.1c0-0.020 0.008-0.040 0.028-0.080z"></path>
        </symbol>
        <symbol id="icon-b-vimeo" viewBox="0 0 32 32">
            <title>b-vimeo</title>
            <path fill="#1ab7ea" style="fill: var(--color5, #1ab7ea)" d="M31.984 8.55c-0.14 3.12-2.32 7.394-6.526 12.82-4.36 5.664-8.040 8.496-11.060 8.496-1.88 0-3.44-1.724-4.74-5.176l-2.558-9.49c-0.96-3.448-1.986-5.174-3.084-5.174-0.24 0-1.076 0.504-2.51 1.51l-1.506-1.944c1.58-1.392 3.136-2.78 4.67-4.172 2.106-1.824 3.688-2.78 4.74-2.88 2.492-0.24 4.024 1.466 4.6 5.12 0.62 3.94 1.052 6.388 1.294 7.346 0.72 3.268 1.508 4.9 2.37 4.9 0.67 0 1.676-1.060 3.020-3.18 1.34-2.12 2.056-3.732 2.152-4.84 0.192-1.83-0.526-2.748-2.154-2.748-0.766 0-1.556 0.16-2.37 0.52 1.58-5.16 4.58-7.68 9.020-7.52 3.3 0.080 4.84 2.22 4.66 6.4z"></path>
        </symbol>
        <symbol id="icon-b-pinterest" viewBox="0 0 32 32">
            <title>b-pinterest</title>
            <path fill="#bd081c" style="fill: var(--color6, #bd081c)" d="M16 0c-8.836 0-16 7.164-16 16 0 6.78 4.216 12.57 10.168 14.9-0.14-1.266-0.266-3.208 0.056-4.59 0.292-1.25 1.876-7.954 1.876-7.954s-0.48-0.96-0.48-2.376c0-2.22 1.292-3.886 2.896-3.886 1.366 0 2.024 1.026 2.024 2.254 0 1.374-0.872 3.426-1.324 5.328-0.38 1.594 0.8 2.89 2.37 2.89 2.84 0 5.028-2.996 5.028-7.324 0-3.82-2.752-6.5-6.684-6.5-4.552 0-7.22 3.42-7.22 6.94 0 1.38 0.526 2.86 1.186 3.66 0.132 0.16 0.15 0.3 0.114 0.46-0.12 0.5-0.392 1.6-0.446 1.82-0.070 0.3-0.23 0.36-0.536 0.22-1.996-0.922-3.248-3.842-3.248-6.202 0-5.040 3.668-9.68 10.574-9.68 5.548 0 9.864 3.96 9.864 9.24 0 5.52-3.48 9.96-8.32 9.96-1.62 0-3.14-0.84-3.68-1.84l-1 3.8c-0.36 1.396-1.34 3.14-2 4.2 1.5 0.46 3.080 0.714 4.74 0.714 8.82 0 16-7.16 16-16s-7.18-16-16-16z"></path>
        </symbol>
        <symbol id="icon-b-snapchat" viewBox="0 0 32 32">
            <title>b-snapchat</title>
            <path fill="#fffc00" style="fill: var(--color7, #fffc00)" d="M16.31 0.96c1.324 0 5.806 0.37 7.92 5.104 0.708 1.594 0.54 4.3 0.4 6.474l-0.004 0.080c-0.016 0.24-0.030 0.46-0.040 0.68 0.1 0.060 0.27 0.12 0.536 0.12 0.4-0.020 0.88-0.16 1.38-0.4 0.22-0.12 0.46-0.14 0.62-0.14 0.24 0 0.48 0.040 0.68 0.12 0.6 0.2 0.98 0.64 0.98 1.12 0.020 0.6-0.52 1.12-1.62 1.56-0.12 0.040-0.28 0.1-0.46 0.16-0.6 0.18-1.52 0.48-1.78 1.080-0.12 0.3-0.080 0.7 0.16 1.16l0.020 0.020c0.080 0.18 2.040 4.64 6.4 5.36 0.34 0.060 0.58 0.36 0.56 0.68 0 0.1-0.020 0.2-0.060 0.3-0.32 0.76-1.7 1.32-4.2 1.7-0.080 0.12-0.16 0.5-0.22 0.76-0.040 0.24-0.1 0.48-0.18 0.74-0.1 0.36-0.36 0.54-0.74 0.54h-0.040c-0.18 0-0.42-0.040-0.72-0.1-0.48-0.1-1.020-0.18-1.7-0.18-0.4 0-0.8 0.020-1.22 0.1-0.8 0.14-1.5 0.62-2.3 1.18-1.14 0.8-2.44 1.72-4.4 1.72-0.080 0-0.16-0.020-0.24-0.020h-0.2c-1.96 0-3.24-0.9-4.38-1.72-0.8-0.56-1.48-1.040-2.28-1.18-0.42-0.060-0.84-0.1-1.24-0.1-0.72 0-1.28 0.12-1.7 0.2-0.28 0.060-0.52 0.1-0.72 0.1-0.5 0-0.7-0.3-0.78-0.56s-0.12-0.52-0.18-0.76-0.14-0.66-0.22-0.76c-2.562-0.298-3.942-0.858-4.262-1.638-0.040-0.084-0.068-0.2-0.072-0.3-0.020-0.324 0.22-0.62 0.56-0.68 4.36-0.72 6.32-5.18 6.4-5.368l0.020-0.040c0.24-0.46 0.3-0.86 0.16-1.16-0.26-0.58-1.18-0.88-1.78-1.080-0.16-0.040-0.32-0.1-0.46-0.16-1.48-0.58-1.68-1.24-1.6-1.7 0.12-0.64 0.9-1.060 1.56-1.060 0.194 0 0.36 0.040 0.512 0.1 0.56 0.26 1.054 0.4 1.474 0.4 0.312 0 0.512-0.080 0.62-0.14l-0.060-0.76c-0.13-2.172-0.3-4.876 0.41-6.46 2.056-4.712 6.526-5.072 7.846-5.072l0.56-0.020h0.080z"></path>
        </symbol>
        <symbol id="icon-b-googleplus" viewBox="0 0 32 32">
            <title>b-googleplus</title>
            <path fill="#dc4e41" style="fill: var(--color8, #dc4e41)" d="M10.18 14.546v3.49h5.78c-0.232 1.5-1.746 4.394-5.774 4.394-3.474 0-6.31-2.88-6.31-6.43s2.83-6.43 6.304-6.43c1.98 0 3.304 0.844 4.060 1.572l2.764-2.66c-1.774-1.66-4.074-2.66-6.82-2.66-5.634-0.002-10.184 4.558-10.184 10.178s4.552 10.18 10.18 10.18c5.88 0 9.776-4.13 9.776-9.948 0-0.668-0.072-1.18-0.16-1.686h-9.616zM32 14.546h-2.91v-2.91h-2.91v2.91h-2.908v2.908h2.91v2.91h2.92v-2.91h2.898z"></path>
        </symbol>
        <symbol id="icon-b-linkedin" viewBox="0 0 32 32">
            <title>b-linkedin</title>
            <path fill="#0077b5" style="fill: var(--color9, #0077b5)" d="M27.264 27.27h-4.74v-7.426c0-1.772-0.036-4.050-2.468-4.050-2.47 0-2.848 1.928-2.848 3.92v7.556h-4.74v-15.27h4.552v2.080h0.060c0.636-1.2 2.184-2.466 4.494-2.466 4.8 0 5.69 3.16 5.69 7.274v8.376zM7.116 9.91c-1.524 0-2.752-1.234-2.752-2.754 0-1.516 1.228-2.75 2.752-2.75 1.52 0 2.752 1.234 2.752 2.75 0 1.52-1.234 2.754-2.752 2.754zM9.492 27.27h-4.752v-15.27h4.752v15.27zM29.632 0h-27.272c-1.304 0-2.36 1.032-2.36 2.306v27.388c0 1.274 1.056 2.306 2.36 2.306h27.27c1.304 0 2.37-1.032 2.37-2.306v-27.388c0-1.274-1.066-2.306-2.37-2.306z"></path>
        </symbol>
        <symbol id="icon-b-twitter" viewBox="0 0 32 32">
            <title>b-twitter</title>
            <path fill="#1da1f2" style="fill: var(--color10, #1da1f2)" d="M32 6.076c-1.18 0.52-2.44 0.874-3.77 1.034 1.354-0.814 2.396-2.1 2.886-3.632-1.268 0.74-2.674 1.28-4.17 1.58-1.196-1.28-2.9-2.080-4.792-2.080-3.624 0-6.564 2.94-6.564 6.56 0 0.52 0.060 1.020 0.17 1.5-5.456-0.26-10.294-2.88-13.532-6.84-0.568 0.962-0.888 2.082-0.888 3.302 0 2.28 1.16 4.286 2.92 5.464-1.076-0.034-2.090-0.33-2.974-0.82v0.080c0 3.18 2.26 5.836 5.266 6.44-0.552 0.148-1.132 0.228-1.73 0.228-0.42 0-0.82-0.040-1.22-0.116 0.84 2.608 3.26 4.506 6.14 4.56-2.24 1.76-5.080 2.808-8.14 2.808-0.52 0-1.040-0.030-1.56-0.090 2.92 1.86 6.36 2.948 10.080 2.948 12.080 0 18.68-10 18.68-18.66 0-0.28 0-0.56-0.020-0.84 1.28-0.92 2.4-2.080 3.28-3.4z"></path>
        </symbol>
        <symbol id="icon-b-instagram" viewBox="0 0 32 32">
            <title>b-instagram</title>
            <path fill="#e4405f" style="fill: var(--color11, #e4405f)" d="M16 0c-4.346 0-4.89 0.020-6.596 0.096-1.704 0.080-2.864 0.348-3.884 0.744-1.052 0.408-1.946 0.956-2.834 1.846-0.89 0.888-1.44 1.78-1.846 2.834-0.396 1.020-0.666 2.18-0.744 3.884-0.080 1.706-0.096 2.25-0.096 6.596s0.020 4.89 0.096 6.596c0.080 1.704 0.348 2.866 0.744 3.884 0.408 1.052 0.956 1.946 1.846 2.834 0.888 0.89 1.78 1.44 2.834 1.846 1.020 0.396 2.18 0.666 3.884 0.744 1.706 0.080 2.25 0.096 6.596 0.096s4.89-0.020 6.596-0.096c1.704-0.080 2.866-0.348 3.884-0.744 1.052-0.408 1.946-0.956 2.834-1.846 0.89-0.888 1.44-1.78 1.846-2.834 0.396-1.020 0.666-2.18 0.744-3.884 0.080-1.706 0.096-2.25 0.096-6.596s-0.020-4.89-0.096-6.596c-0.080-1.704-0.348-2.866-0.744-3.884-0.408-1.052-0.956-1.946-1.846-2.834-0.888-0.89-1.78-1.44-2.834-1.846-1.020-0.396-2.18-0.666-3.884-0.744-1.706-0.080-2.25-0.096-6.596-0.096zM16 2.88c4.272 0 4.78 0.020 6.466 0.096 1.56 0.072 2.406 0.332 2.97 0.552 0.748 0.29 1.28 0.636 1.84 1.196s0.906 1.092 1.196 1.84c0.22 0.564 0.48 1.41 0.552 2.97 0.076 1.688 0.094 2.194 0.094 6.466s-0.020 4.78-0.1 6.466c-0.080 1.56-0.34 2.406-0.56 2.97-0.3 0.748-0.64 1.28-1.2 1.84s-1.1 0.906-1.84 1.196c-0.56 0.22-1.42 0.48-2.98 0.552-1.7 0.076-2.2 0.094-6.48 0.094s-4.78-0.020-6.48-0.1c-1.56-0.080-2.42-0.34-2.98-0.56-0.76-0.3-1.28-0.64-1.84-1.2s-0.92-1.1-1.2-1.84c-0.22-0.56-0.48-1.42-0.56-2.98-0.060-1.68-0.080-2.2-0.080-6.46s0.020-4.78 0.080-6.48c0.080-1.56 0.34-2.42 0.56-2.98 0.28-0.76 0.64-1.28 1.2-1.84s1.080-0.92 1.84-1.2c0.56-0.22 1.4-0.48 2.96-0.56 1.7-0.060 2.2-0.080 6.48-0.080zM16 7.784c-4.54 0-8.216 3.68-8.216 8.216 0 4.54 3.68 8.216 8.216 8.216 4.54 0 8.216-3.68 8.216-8.216 0-4.54-3.68-8.216-8.216-8.216zM16 21.334c-2.946 0-5.334-2.388-5.334-5.334s2.388-5.334 5.334-5.334c2.946 0 5.334 2.388 5.334 5.334s-2.388 5.334-5.334 5.334zM26.46 7.46c0 1.060-0.86 1.92-1.92 1.92s-1.92-0.86-1.92-1.92 0.86-1.92 1.92-1.92 1.92 0.86 1.92 1.92z"></path>
        </symbol>
        <symbol id="icon-b-youtube" viewBox="0 0 32 32">
            <title>b-youtube</title>
            <path fill="#cd201f" style="fill: var(--color12, #cd201f)" d="M0 14.69v2.52c0 2.59 0.32 5.18 0.32 5.18s0.312 2.2 1.272 3.174c1.216 1.274 2.816 1.234 3.528 1.368 2.56 0.246 10.88 0.32 10.88 0.32s6.724-0.008 11.2-0.332c0.628-0.076 1.992-0.080 3.208-1.356 0.96-0.972 1.272-3.176 1.272-3.176s0.32-2.588 0.32-5.18v-2.516c0-2.592-0.32-5.18-0.32-5.18s-0.312-2.204-1.272-3.176c-1.216-1.276-2.58-1.28-3.208-1.356-4.476-0.324-11.2-0.332-11.2-0.332s-8.32 0.072-10.88 0.32c-0.712 0.134-2.312 0.094-3.528 1.368-0.96 0.974-1.272 3.174-1.272 3.174s-0.32 2.592-0.32 5.18zM12.696 20.15v-8.99l8.646 4.51-8.64 4.48z"></path>
        </symbol>
        <symbol id="icon-b-facebook" viewBox="0 0 32 32">
            <title>b-facebook</title>
            <path fill="#3b5998" style="fill: var(--color13, #3b5998)" d="M30.234 0h-28.468c-0.976 0-1.766 0.79-1.766 1.766v28.468c0 0.976 0.79 1.766 1.766 1.766h15.326v-12.392h-4.172v-4.828h4.172v-3.566c0-4.132 2.524-6.38 6.212-6.38 1.766 0 3.284 0.128 3.726 0.188v4.32h-2.56c-2 0-2.39 0.96-2.39 2.36v3.080h4.78l-0.62 4.84h-4.16v12.378h8.154c0.976 0 1.766-0.79 1.766-1.766v-28.468c0-0.976-0.79-1.766-1.766-1.766z"></path>
        </symbol>
        <symbol id="icon-b-mailchimp" viewBox="0 0 32 32">
            <title>b-mailchimp</title>
            <path fill="#2c9ab7" style="fill: var(--color1, #3b5998)" d="M31.158 20.836c0.38 0.922-0.36 2.030-0.36 2.030-0.040 0.082-2.4 9.134-11.64 9.134-8-0.002-11.78-6.956-11.78-6.956-0.58 0.032-1.16-0.060-1.66-0.252-2.348-0.86-3.474-3.548-2.664-5.8l-1.29-0.986c-4.998-3.806 9.16-21.226 14.166-17.286l1.19 0.96c1.8-1.090 3.58-1.68 5.032-1.68 1.028 0 1.888 0.3 2.46 0.982 1.3 1.4 0.836 4.080-0.94 6.8 0.384 0.36 0.698 0.86 0.924 1.34 0.564 0.44 0.932 1.1 1.112 2 0.202 1.020 0.244 2.46 0.372 3.080 0.478 0.22 0.274 0.12 0.784 0.36 0.532 0.28 1.18 0.6 1.896 1.28 1.272 0.32 1.758 1.66 1.012 2.58-0.020 0.024-0.108 0.13-0.2 0.234 0.020 0.060 0.264 0.456 0.44 1.26 0.528 0.126 0.948 0.45 1.168 0.92zM20.452 22.296c-0.61 0.028-0.988-0.072-1.2 0.64-0.016 0.060-0.028 0.132-0.034 0.206 2.38 0.76 6.16-0.7 6.52-0.78h0.040c0.22 0.020-2.040 1.46-5.18 1.46-0.54 0-1-0.040-1.36-0.12 0.16 0.6 0.62 0.86 1.2 1 0.44 0.1 0.92 0.12 0.92 0.12 4.34 0.12 7.92-3.24 8.060-3.42l-0.040 0.1c-0.64 1.44-4.34 4.040-8.020 3.96-0.86 0-1.9-0.22-2.44-0.88-0.86-1.040-0.42-2.8 0.94-2.84l0.44-0.020c3.36-0.1 6.38-1.34 8.54-3.92 0.28-0.36-0.040-0.88-0.68-0.88v-0.020c-0.76-0.82-1.44-1.1-2.040-1.4-1.26-0.64-1.14-0.080-1.42-3.18-0.080-0.82-0.24-1.96-0.98-2.4-0.18-0.12-0.4-0.16-0.62-0.16-0.2 0-0.32 0.040-0.36 0.040-0.4 0.1-0.62 0.32-0.9 0.58-1.36 1.24-2.44 0.9-4.040 0.9-1.52 0-2.86 1.040-3.1 2.66-0.14 0.84-0.060 1.72 0.080 2.1 0 0-0.42-0.26-0.62-0.5 0.24 1.48 1.58 2.44 1.58 2.44-0.22 0.060-0.52 0.040-0.52 0.040s0.76 0.62 1.44 0.82c-0.18 0.12-1.060 0.98-1.52 2.18-0.42 1.12-0.24 2.48-0.24 2.48l0.36-0.54s-0.24 1.22 0.22 2.42c0.14-0.36 0.48-0.98 0.48-0.98s-0.060 1.32 0.58 2.4c0.020-0.24 0.12-0.88 0.12-0.88s0.36 1.12 1.2 1.92c1.56 1.4 5.74 1.66 8.9-0.84 2.52-1.98 2.96-4.34 3-4.42 0.62-0.74 0.44-1.48-0.38-1.48-0.26 0-0.44 0.070-0.44 0.070s0-1.080-0.5-1.92c-0.4 0.428-1.46 1.288-2.86 1.96-1.32 0.62-3.080 1.166-5.26 1.24zM7.084 24c2.016 0 3.542-1.914 3.19-4.010 0 0-0.206 0.48-0.4 0.736 0.048-0.752-0.070-1.494-0.3-2.2 0 0-0.104 0.422-0.304 0.934-0.194-1.64-0.884-1.988-0.884-1.988-0.396-0.186-0.836-0.286-1.3-0.286-1.788 0-3.24 1.528-3.24 3.408 0 1.882 1.452 3.406 3.24 3.406zM7.902 19.458c-0.1 0-0.22 0.040-0.32 0.14-0.16 0.18-0.22 0.54 0.040 0.84 0.3 0.32 0.76 0.4 0.82 0.8 0.012 0.060 0.016 0.12 0.012 0.2 0 0.060-0.024 0.16-0.024 0.18-0.080 0.34-0.38 0.68-0.874 0.68h-0.19c-0.064-0.020-0.11-0.020-0.15-0.020-0.028 0-0.048 0-0.056 0.020-0.046 0.060 0.204 0.36 0.664 0.36h0.024c0.682-0.020 1.244-0.72 1.108-1.48-0.12-0.67-0.79-0.81-1.040-1.010-0.066-0.052-0.1-0.1-0.12-0.172-0.026-0.13-0.012-0.204 0.1-0.284 0.086-0.060 0.156-0.088 0.156-0.124 0.002-0.034-0.072-0.074-0.172-0.074zM6.442 19.082l0.114-0.060 0.054-0.020c0.13-0.038 0.056-0.022 0.19-0.048h0.040c0.126-0.028 0.246-0.040 0.36-0.040h0.042c0.52 0.002 0.9 0.256 1.080 0.516 0.16 0.24 0.1 0.382 0.18 0.45 0.020 0.016 0.040 0.026 0.060 0.026s0.040-0.004 0.040-0.010c0.1-0.040 0.14-0.192 0.16-0.3 0.020-0.258-0.12-0.546-0.3-0.752-0.24-0.27-0.62-0.484-1.040-0.55-0.1-0.014-0.2-0.020-0.3-0.020h-0.020c-0.26 0-0.48 0.046-0.56 0.070-0.040 0.016-0.12 0.030-0.18 0.050-1.020 0.4-1.48 1.4-1.26 2.4 0.040 0.24 0.16 0.51 0.32 0.69 0.1 0.104 0.2 0.152 0.26 0.152 0.080 0 0.12-0.066 0.060-0.18-0.020-0.058-0.16-0.298-0.18-0.732-0.016-0.444 0.086-0.906 0.374-1.26 0.21-0.26 0.47-0.376 0.5-0.39zM2.138 16.852c0.18 0.292 1.38 1.18 1.4 1.18 0.474-0.652 1.010-1.132 1.554-1.432h-0.052c1.1-3.8 4.020-7.7 7.042-10.198 0.74-0.62 2.42-1.82 2.24-1.64l-1.7-1.5-0.12-0.86 2.32 1.92-0.32 0.26c-0.24 0.18-0.46 0.4-0.7 0.6-0.34 0.32-0.66 0.64-1 0.98-0.7 0.74-1.4 1.52-2.060 2.34-1.15 1.44-1.628 2.12-2.356 3.48 0 0 3.97-4.76 4.96-5.74 1.814-1.8 4.786-3.82 4.814-3.84 1.27-0.776 2.34-1.232 3.22-1.428-1.444 0.146-2.988 0.886-4.2 1.616l-1.764-1.49-0.646 0.246c-2.346-0.556-7.514 3.34-10.614 8.28-1.256 2-3.022 5.516-2.008 7.228zM19.158 16.182c-0.080 0-0.16 0-0.24 0.020l-0.22 0.060c-0.040 0-0.060 0.020-0.080 0.020-0.16 0.060-0.3 0.14-0.42 0.26-0.14 0.16-0.2 0.3-0.14 0.32h0.020c0.060 0 0.14-0.044 0.28-0.096 0.44-0.174 0.76-0.22 1.060-0.22 0.1 0 0.18 0.004 0.28 0.010 0.080 0.006 0.14 0.014 0.2 0.014h0.020c0.070 0 0.11-0.012 0.13-0.040 0.052-0.090-0.3-0.376-0.82-0.376zM22.458 15.942c-0.14 0-0.26 0.060-0.32 0.16-0.1 0.18 0.022 0.46 0.276 0.58 0.104 0.058 0.214 0.084 0.314 0.084 0.144 0 0.268-0.058 0.328-0.166 0.104-0.186-0.022-0.446-0.276-0.586-0.102-0.056-0.212-0.084-0.312-0.084zM24.162 15.318c-0.18 0-0.34 0.18-0.38 0.42-0.040 0.26 0.080 0.48 0.26 0.52 0.020 0 0.040 0.020 0.040 0.020 0.18-0.002 0.32-0.174 0.36-0.408 0.040-0.254-0.080-0.482-0.28-0.51-0.014-0.004-0.024-0.004-0.034-0.004zM18.582 14.838c-0.5 0-1 0.18-1.4 0.5-0.3 0.24-0.42 0.5-0.3 0.52h0.020c0.1 0 0.26-0.060 0.48-0.14 0.48-0.18 0.86-0.26 1.2-0.26h0.020c0.34 0 0.66 0.080 1.020 0.22 0.22 0.080 0.4 0.16 0.48 0.16 0.040 0 0.060-0.020 0.060-0.020 0.040-0.032 0.020-0.106-0.060-0.206-0.18-0.26-0.52-0.488-0.84-0.6-0.23-0.086-0.474-0.126-0.714-0.126zM23.096 14.442c-0.094-0.28-0.138-0.54-0.148-0.84-0.006-0.24 0.032-0.64 0.26-0.72 0.386-0.134 0.9 0.854 0.92 1.734-0.304-0.152-0.664-0.216-1.032-0.186zM11.018 11.878c0.9-1.18 2.080-2.32 3.68-3.34 3.48-2.26 6.96-2.52 8.16-1.6l-0.020-0.060c-0.32-0.64-1.020-1.080-1.64-1.26 0.1 0.12 0.26 0.34 0.34 0.46-0.48-0.32-1.1-0.6-1.76-0.74l0.1 0.080c0.12 0.12 0.3 0.3 0.38 0.48-0.62-0.26-1.42-0.4-2.1-0.26l-0.080 0.020 0.1 0.040c0.22 0.060 0.54 0.2 0.7 0.4-1.132-0.2-2.376 0.020-3.048 0.4 0.086-0.020 0.086-0.020 0.16 0 0.246 0.006 0.744 0.040 0.95 0.174-0.712 0.144-1.744 0.46-2.3 0.94 0.098-0.008 0.656-0.082 0.884-0.048-3.040 1.74-4.436 4.368-4.452 4.4zM15.902 3.44l-1.48-0.448 0.96 0.812 0.014-0.010c0.138-0.104 0.3-0.224 0.484-0.354zM16.618 2.94c-0.16 0.104-0.312 0.204-0.452 0.304l-0.26-0.9 0.714 0.596zM14.686 2.472l-0.12-0.496 0.204-0.63 0.35 1.266-0.432-0.14z"></path>
        </symbol>
        
        <symbol id="icon-paper" viewBox="0 0 32 32">
            <title>paper</title>
            <path d="M31.414 7.585l-6-6c-0.375-0.375-0.885-0.585-1.414-0.585h-21c-1.654 0-3 1.345-3 3v24c0 1.654 1.346 3 3 3h26c1.654 0 3-1.346 3-3v-19c0-0.531-0.211-1.040-0.586-1.415zM30 28c0 0.553-0.447 1-1 1h-26c-0.553 0-1-0.447-1-1v-24c0-0.553 0.447-1 1-1h20v4h-0.002c0 1.657 1.344 3 3 3h4.002v18zM26.998 9h-1c-1.102 0-2-0.897-2-2h0.002v-4l6 6h-3.002zM15.5 8c-0.276 0-0.5-0.223-0.5-0.5s0.224-0.5 0.5-0.5h5c0.275 0 0.5 0.224 0.5 0.5s-0.225 0.5-0.5 0.5h-5zM15.5 11c-0.276 0-0.5-0.224-0.5-0.5s0.224-0.5 0.5-0.5h5c0.275 0 0.5 0.224 0.5 0.5s-0.225 0.5-0.5 0.5h-5zM15 13.5c0-0.277 0.224-0.5 0.5-0.5h12c0.275 0 0.5 0.224 0.5 0.5s-0.225 0.5-0.5 0.5h-12c-0.276 0-0.5-0.224-0.5-0.5zM27.5 19c0.275 0 0.5 0.223 0.5 0.5 0 0.275-0.225 0.5-0.5 0.5h-23c-0.276 0-0.5-0.225-0.5-0.5 0-0.277 0.224-0.5 0.5-0.5h23zM27.5 22c0.275 0 0.5 0.223 0.5 0.5 0 0.275-0.225 0.5-0.5 0.5h-23c-0.276 0-0.5-0.225-0.5-0.5 0-0.277 0.224-0.5 0.5-0.5h23zM27.5 25c0.275 0 0.5 0.223 0.5 0.5 0 0.275-0.225 0.5-0.5 0.5h-23c-0.276 0-0.5-0.225-0.5-0.5 0-0.277 0.224-0.5 0.5-0.5h23zM27.5 16c0.275 0 0.5 0.224 0.5 0.5s-0.225 0.5-0.5 0.5h-23c-0.276 0-0.5-0.223-0.5-0.5s0.224-0.5 0.5-0.5h23zM5 14h7c0.553 0 1-0.447 1-1v-6c0-0.553-0.447-1-1-1h-7c-0.553 0-1 0.447-1 1v6c0 0.552 0.447 1 1 1zM6 8h5v4h-5v-4z"></path>
        </symbol>
        
        <symbol id="icon-arrow-right-fill" viewBox="0 0 32 32">
            <title>arrow-right-fill</title>
            <path d="M0 16c0 8.836 7.164 16 16 16 8.837 0 16-7.164 16-16 0-8.837-7.163-16-16-16s-16 7.163-16 16zM24 16l-8 8v-6h-8v-4h8v-6l8 8z"></path>
        </symbol>
        
        <symbol id="icon-trophy" viewBox="0 0 32 32">
            <title>trophy</title>
            <path d="M30.4 1.6h-4.8v-1.6h-19.2v1.6h-4.8c-0.96 0-1.6 0.64-1.6 1.6v3.84c0 3.68 2.72 6.72 6.4 7.2v0.16c0 4.64 3.2 8.48 7.52 9.44l-1.12 3.36h-3.68c-0.64 0-1.28 0.48-1.44 1.12l-1.28 3.68h19.2l-1.28-3.68c-0.16-0.64-0.8-1.12-1.44-1.12h-3.68l-1.12-3.36c4.32-0.96 7.52-4.8 7.52-9.44v-0.16c3.68-0.48 6.4-3.52 6.4-7.2v-3.84c0-0.96-0.64-1.6-1.6-1.6zM6.4 11.040c-1.76-0.48-3.2-2.080-3.2-4v-2.24h3.2v6.24zM19.2 16l-3.2-1.76-3.2 1.76 0.8-3.2-2.4-3.2h3.36l1.44-3.2 1.44 3.2h3.36l-2.4 3.2 0.8 3.2zM28.8 7.040c0 1.92-1.44 3.68-3.2 4v-6.24h3.2v2.24z"></path>
        </symbol>

        <symbol id="icon-pillar-logo" viewBox="0 0 128 32">
            <title>Pillar-Logo</title>
            <path fill="#cdcccc" style="fill: var(--color1, #cdcccc)" d="M45.035 27.209v0.157c0 1.355-0.622 2.677-2.634 2.677-2.155 0-2.826-1.218-2.826-3.894s0.671-3.894 2.838-3.894c2.431 0 2.574 1.574 2.574 2.351v0.137h-1.364v-0.126c0-0.693-0.239-1.491-1.222-1.459-1.005 0-1.461 0.546-1.461 2.961s0.455 3.023 1.461 3.023c1.138 0 1.269-1.113 1.269-1.805v-0.126h1.365z"></path>
            <path fill="#cdcccc" style="fill: var(--color1, #cdcccc)" d="M49.668 26.117c0-2.519-0.646-2.961-1.461-2.961s-1.461 0.441-1.461 2.961c0 2.582 0.646 3.023 1.461 3.023s1.461-0.442 1.461-3.023zM45.381 26.148c0-2.677 0.862-3.895 2.827-3.895 1.963 0 2.826 1.218 2.826 3.895s-0.863 3.894-2.826 3.894c-1.964 0-2.827-1.218-2.827-3.894z"></path>
            <path fill="#cdcccc" style="fill: var(--color1, #cdcccc)" d="M51.833 22.4h1.665l2.479 5.585h0.024v-5.585h1.293v7.496h-1.665l-2.479-5.732h-0.023v5.732h-1.294v-7.496z"></path>
            <path fill="#cdcccc" style="fill: var(--color1, #cdcccc)" d="M59.353 27.575v0.189c0 0.914 0.455 1.376 1.401 1.376 0.862 0 1.293-0.535 1.293-1.092 0-0.787-0.455-1.133-1.222-1.333l-0.933-0.283c-1.246-0.42-1.784-0.987-1.784-2.057 0-1.365 1.053-2.121 2.658-2.121 2.191 0 2.419 1.197 2.419 1.974v0.167h-1.365v-0.157c0-0.683-0.348-1.082-1.198-1.082-0.587 0-1.149 0.283-1.149 1.082 0 0.64 0.371 0.965 1.281 1.27l0.922 0.294c1.21 0.378 1.737 0.955 1.737 1.983 0 1.596-1.102 2.257-2.826 2.257-2.12 0-2.599-1.239-2.599-2.289v-0.179h1.365z"></path>
            <path fill="#cdcccc" style="fill: var(--color1, #cdcccc)" d="M65.507 23.408h-2.036v-1.007h5.401v1.007h-1.999v6.488h-1.365v-6.488z"></path>
            <path fill="#cdcccc" style="fill: var(--color1, #cdcccc)" d="M71.696 25.739c0.875 0 1.365-0.462 1.365-1.218 0-0.798-0.395-1.217-1.293-1.217h-1.162v2.435h1.090zM69.242 22.4h3.018c1.197 0 2.167 0.525 2.167 1.932 0 0.966-0.491 1.711-1.425 1.838v0.021c0.85 0.073 1.294 0.483 1.341 1.532 0.012 0.484 0.024 1.070 0.048 1.523 0.024 0.367 0.227 0.546 0.407 0.651h-1.544c-0.132-0.138-0.193-0.367-0.228-0.661-0.048-0.452-0.036-0.871-0.061-1.417-0.023-0.819-0.311-1.176-1.245-1.176h-1.114v3.254h-1.365v-7.496z"></path>
            <path fill="#cdcccc" style="fill: var(--color1, #cdcccc)" d="M76.521 22.4v5.375c0 0.945 0.43 1.365 1.257 1.365 0.814 0 1.245-0.42 1.245-1.365v-5.375h1.365v5.281c0 1.733-0.981 2.362-2.61 2.362-1.641 0-2.622-0.629-2.622-2.362v-5.281h1.365z"></path>
            <path fill="#cdcccc" style="fill: var(--color1, #cdcccc)" d="M86.541 27.209v0.157c0 1.355-0.622 2.677-2.634 2.677-2.156 0-2.827-1.218-2.827-3.894s0.671-3.894 2.838-3.894c2.431 0 2.574 1.574 2.574 2.351v0.137h-1.365v-0.126c0-0.693-0.239-1.491-1.221-1.459-1.006 0-1.461 0.546-1.461 2.961s0.455 3.023 1.461 3.023c1.137 0 1.269-1.113 1.269-1.805v-0.126h1.364z"></path>
            <path fill="#cdcccc" style="fill: var(--color1, #cdcccc)" d="M88.492 23.408h-2.036v-1.007h5.401v1.007h-1.999v6.488h-1.365v-6.488z"></path>
            <path fill="#cdcccc" style="fill: var(--color1, #cdcccc)" d="M92.166 22.4h1.366v7.496h-1.366v-7.496z"></path>
            <path fill="#cdcccc" style="fill: var(--color1, #cdcccc)" d="M98.561 26.117c0-2.519-0.647-2.961-1.46-2.961-0.814 0-1.461 0.441-1.461 2.961 0 2.582 0.647 3.023 1.461 3.023 0.813 0 1.46-0.442 1.46-3.023zM94.274 26.148c0-2.677 0.862-3.895 2.826-3.895 1.963 0 2.826 1.218 2.826 3.895s-0.863 3.894-2.826 3.894c-1.964 0-2.826-1.218-2.826-3.894z"></path>
            <path fill="#cdcccc" style="fill: var(--color1, #cdcccc)" d="M100.727 22.4h1.665l2.478 5.585h0.023v-5.585h1.294v7.496h-1.665l-2.479-5.732h-0.024v5.732h-1.293v-7.496z"></path>
            <path fill="#cdcccc" style="fill: var(--color1, #cdcccc)" d="M107.026 28.51h1.365v1.386c0 0.829-0.311 1.438-1.365 1.617v-0.609c0.371-0.084 0.599-0.388 0.599-0.85v-0.157h-0.599v-1.386z"></path>
            <path fill="#cdcccc" style="fill: var(--color1, #cdcccc)" d="M111.409 22.4h1.366v7.496h-1.366v-7.496z"></path>
            <path fill="#cdcccc" style="fill: var(--color1, #cdcccc)" d="M113.719 22.4h1.665l2.478 5.585h0.023v-5.585h1.293v7.496h-1.665l-2.478-5.732h-0.025v5.732h-1.293v-7.496z"></path>
            <path fill="#cdcccc" style="fill: var(--color1, #cdcccc)" d="M125.441 27.209v0.157c0 1.355-0.623 2.677-2.635 2.677-2.155 0-2.826-1.218-2.826-3.894s0.671-3.894 2.838-3.894c2.431 0 2.574 1.574 2.574 2.351v0.137h-1.365v-0.126c0-0.693-0.239-1.491-1.222-1.459-1.005 0-1.461 0.546-1.461 2.961s0.455 3.023 1.461 3.023c1.138 0 1.27-1.113 1.27-1.805v-0.126h1.365z"></path>
            <path fill="#cdcccc" style="fill: var(--color1, #cdcccc)" d="M125.826 28.51h1.365v1.387h-1.365v-1.387z"></path>
            <path fill="#12a6c2" style="fill: var(--color2, #12a6c2)" d="M34.534 30.133l-2.35-4.076h-23.692l1.267-2.044h21.249l-2.606-4.521c0.001 0.003 0.005 0.009 0.005 0.009h-21.467l-6.131 10.632h33.725z"></path>
            <path fill="#12a6c2" style="fill: var(--color2, #12a6c2)" d="M23.311 10.663l-5.636-9.779-6.389 11.081h5.203c0.107-0.71 0.56-1.242 1.104-1.242 0.622 0 1.128 0.699 1.128 1.562 0 0.824-0.548 1.643-1.324 1.643h-7.243l-2.143 3.716h11.377c3.738 0 5.385-4.466 3.923-6.979z"></path>
            <path fill="#cdcccc" style="fill: var(--color1, #cdcccc)" d="M51.232 1.156c0.828 0.513 1.465 1.203 1.908 2.069s0.665 1.846 0.665 2.939c0 1.126-0.215 2.123-0.646 2.989s-1.065 1.576-1.901 2.131c1.268-0.286 2.27-0.879 3.004-1.779s1.102-1.988 1.102-3.267c0-1.329-0.363-2.441-1.090-3.336-0.726-0.896-1.74-1.478-3.042-1.747zM45.642 10.351c0.688 0.303 1.342 0.53 1.963 0.681 0.62 0.152 1.203 0.227 1.749 0.227 1.166 0 2.122-0.47 2.869-1.412 0.746-0.942 1.119-2.161 1.119-3.658 0-1.479-0.371-2.667-1.112-3.563-0.742-0.894-1.72-1.342-2.935-1.342h-1.434c-0.639 0-1.169 0.21-1.589 0.631-0.421 0.42-0.631 0.949-0.631 1.589v6.848zM41.843 18.515h3.612c-0.434-0.343-0.719-0.622-0.852-0.836s-0.201-0.493-0.201-0.836v-13.883c0-0.261 0.033-0.475 0.1-0.643s0.171-0.307 0.313-0.416l0.853-0.618h-3.749l1.34 1.135v0.239c-0.102 0.051-0.178 0.129-0.229 0.234s-0.076 0.242-0.076 0.41v13.416c0 0.361-0.086 0.681-0.259 0.962s-0.456 0.559-0.852 0.836zM45.642 10.868v5.509c0 0.587 0.199 1.090 0.599 1.509s0.877 0.629 1.432 0.629h0.706v0.493h-8.274v-0.493h0.416c0.511 0 0.963-0.21 1.353-0.629 0.391-0.419 0.586-0.922 0.586-1.509v-12.95c0-0.589-0.195-1.093-0.586-1.513-0.39-0.421-0.842-0.631-1.353-0.631h-0.416v-0.493h10.247c1.83 0 3.325 0.508 4.483 1.526s1.738 2.325 1.738 3.923c0 1.631-0.617 2.966-1.852 4.004s-2.825 1.558-4.773 1.558c-0.705 0-1.417-0.077-2.134-0.233s-1.442-0.388-2.173-0.699z"></path>
            <path fill="#cdcccc" style="fill: var(--color1, #cdcccc)" d="M58.254 4.933c0 0.236 0.056 0.425 0.168 0.564s0.268 0.209 0.469 0.209c0.182 0 0.334-0.071 0.455-0.215s0.181-0.33 0.181-0.557c0-0.229-0.061-0.417-0.181-0.564s-0.273-0.222-0.455-0.222c-0.201 0-0.356 0.070-0.469 0.209s-0.168 0.332-0.168 0.577zM59.384 17.516l-0.013-6.159c-0.177 0.043-0.505 0.073-0.984 0.090-0.143 0.008-0.252 0.012-0.328 0.012 0.101 0.101 0.174 0.236 0.221 0.404s0.069 0.404 0.069 0.706v4.593c0 0.378-0.036 0.674-0.108 0.887s-0.193 0.38-0.362 0.498h0.571c0.386 0 0.638-0.056 0.756-0.17s0.177-0.401 0.177-0.862zM57.857 4.962c0-0.379 0.122-0.694 0.365-0.945 0.244-0.253 0.55-0.379 0.921-0.379s0.683 0.129 0.939 0.385 0.385 0.57 0.385 0.939c0 0.361-0.128 0.666-0.385 0.914s-0.57 0.372-0.939 0.372c-0.362 0-0.666-0.122-0.914-0.365-0.247-0.244-0.371-0.55-0.371-0.921zM56.515 19.009v-0.461h0.076c0.471 0 0.808-0.119 1.010-0.358 0.202-0.24 0.303-0.645 0.303-1.215v-4.254c0-0.486-0.069-0.802-0.208-0.944s-0.431-0.214-0.877-0.214h-0.569v-0.461c1.127-0.051 2.011-0.113 2.651-0.184 0.639-0.073 1.161-0.159 1.565-0.261v6.395c0 0.646 0.076 1.058 0.227 1.233 0.152 0.177 0.471 0.265 0.961 0.265h0.467v0.461h-5.606z"></path>
            <path fill="#cdcccc" style="fill: var(--color1, #cdcccc)" d="M65.040 2.412v14.748c0 0.379-0.035 0.674-0.108 0.889-0.072 0.214-0.193 0.38-0.362 0.498h0.571c0.392 0 0.648-0.059 0.769-0.177 0.12-0.117 0.181-0.404 0.181-0.857l-0.012-16.338c-0.36 0.043-0.63 0.071-0.81 0.089s-0.349 0.030-0.508 0.038c0.093 0.101 0.163 0.236 0.21 0.404s0.070 0.404 0.070 0.706zM62.972 19.009v-0.461h0.227c0.503 0 0.861-0.119 1.075-0.359s0.321-0.645 0.321-1.217v-14.433c0-0.496-0.067-0.813-0.202-0.951-0.134-0.139-0.419-0.209-0.855-0.209h-0.566v-0.429c1.009-0.050 1.844-0.11 2.508-0.18 0.665-0.071 1.223-0.165 1.677-0.281v16.559c0 0.647 0.075 1.059 0.226 1.235 0.15 0.177 0.468 0.265 0.954 0.265h0.364v0.461h-5.728z"></path>
            <path fill="#cdcccc" style="fill: var(--color1, #cdcccc)" d="M71.72 2.412v14.748c0 0.379-0.036 0.674-0.108 0.889-0.071 0.214-0.193 0.38-0.362 0.498h0.57c0.392 0 0.649-0.059 0.77-0.177 0.12-0.117 0.181-0.404 0.181-0.857l-0.013-16.338c-0.36 0.043-0.63 0.071-0.81 0.089s-0.349 0.030-0.508 0.038c0.093 0.101 0.164 0.236 0.21 0.404 0.047 0.168 0.070 0.404 0.070 0.706zM69.652 19.009v-0.461h0.227c0.503 0 0.861-0.119 1.075-0.359s0.322-0.645 0.322-1.217v-14.433c0-0.496-0.067-0.813-0.201-0.951-0.134-0.139-0.42-0.209-0.856-0.209h-0.566v-0.429c1.009-0.050 1.845-0.11 2.508-0.18 0.665-0.071 1.223-0.165 1.677-0.281v16.559c0 0.647 0.075 1.059 0.226 1.235 0.15 0.177 0.468 0.265 0.954 0.265h0.364v0.461h-5.729z"></path>
            <path fill="#cdcccc" style="fill: var(--color1, #cdcccc)" d="M82.374 11.271c0.083 0.177 0.15 0.397 0.2 0.661s0.075 0.556 0.075 0.875v4.208c0 0.615 0.124 1.071 0.373 1.371 0.249 0.298 0.622 0.447 1.119 0.447 0.092 0 0.191-0.008 0.297-0.025 0.106-0.018 0.196-0.034 0.273-0.051-0.402-0.067-0.676-0.204-0.822-0.41-0.147-0.206-0.22-0.579-0.22-1.118v-2.66c0-1.099-0.097-1.851-0.291-2.253s-0.528-0.752-1.002-1.045zM79.733 12.706c0-0.151 0.021-0.315 0.063-0.492 0.042-0.175 0.105-0.385 0.189-0.629-0.185 0.118-0.355 0.244-0.51 0.378s-0.291 0.282-0.408 0.44l0.666 0.303zM82.187 14.255c-1.099 0.093-1.915 0.329-2.447 0.707s-0.798 0.908-0.798 1.589c0 0.505 0.151 0.922 0.453 1.25s0.684 0.492 1.145 0.492c0.318 0 0.616-0.089 0.893-0.266s0.528-0.434 0.755-0.771v-3.001zM79.608 18.783c-0.519-0.194-0.92-0.473-1.201-0.839s-0.42-0.785-0.42-1.256c0-0.386 0.083-0.743 0.251-1.071s0.427-0.644 0.779-0.946c-0.666 0.193-1.174 0.481-1.523 0.864-0.35 0.382-0.525 0.835-0.525 1.355 0 0.53 0.223 0.982 0.669 1.357 0.446 0.373 0.998 0.561 1.655 0.561 0.042 0 0.097-0.004 0.164-0.012s0.118-0.013 0.152-0.013zM82.212 17.951c-0.454 0.463-0.912 0.807-1.374 1.035s-0.95 0.341-1.462 0.341c-0.823 0-1.5-0.236-2.028-0.707-0.529-0.47-0.794-1.055-0.794-1.753 0-0.849 0.349-1.501 1.046-1.956 0.697-0.453 1.802-0.748 3.314-0.883 0.092-0.009 0.219-0.021 0.378-0.038 0.597-0.050 0.895-0.252 0.895-0.604v-1.172c0-0.361-0.067-0.631-0.202-0.811-0.134-0.181-0.335-0.271-0.604-0.271-0.327 0-0.598 0.099-0.812 0.295-0.214 0.198-0.321 0.452-0.321 0.762 0 0.26 0.065 0.495 0.195 0.705s0.333 0.416 0.61 0.617l-0.29 0.415-2.439-1.246c0.452-0.664 0.948-1.17 1.485-1.519s1.099-0.523 1.686-0.523c1.050 0 1.862 0.317 2.437 0.951s0.862 1.531 0.862 2.69v3.026c0 0.295 0.039 0.515 0.12 0.658 0.079 0.143 0.204 0.215 0.372 0.215 0.228 0 0.461-0.129 0.701-0.386 0.24-0.256 0.419-0.583 0.538-0.98l0.417 0.228c-0.244 0.699-0.616 1.254-1.117 1.667s-1.041 0.619-1.622 0.619c-0.479 0-0.898-0.126-1.256-0.379-0.357-0.252-0.604-0.585-0.738-0.997z"></path>
            <path fill="#cdcccc" style="fill: var(--color1, #cdcccc)" d="M94.063 11.132c0.158 0.076 0.276 0.172 0.351 0.29s0.13 0.29 0.164 0.517c0.017 0.151 0.034 0.358 0.050 0.619 0.042 0.673 0.189 1.009 0.443 1.009 0.161 0 0.283-0.076 0.367-0.228 0.084-0.151 0.126-0.37 0.126-0.655 0-0.505-0.114-0.889-0.341-1.154-0.227-0.265-0.555-0.397-0.983-0.397h-0.177zM90.791 17.462l-0.013-6.114c-0.178 0.043-0.526 0.073-1.050 0.090-0.151 0.009-0.265 0.012-0.341 0.012 0.135 0.084 0.231 0.206 0.287 0.364 0.054 0.159 0.083 0.406 0.083 0.74v4.542c0 0.387-0.036 0.687-0.109 0.902-0.071 0.214-0.193 0.38-0.363 0.498h0.572c0.387 0 0.639-0.057 0.756-0.17 0.118-0.113 0.177-0.402 0.177-0.865zM91.873 17.047c0 0.647 0.076 1.059 0.226 1.235 0.151 0.177 0.47 0.265 0.955 0.265h0.491v0.461h-5.989v-0.461h0.366c0.498 0 0.853-0.119 1.068-0.359s0.322-0.645 0.322-1.217v-4.239c0-0.48-0.068-0.79-0.203-0.929s-0.429-0.209-0.884-0.209h-0.695v-0.461c1.060-0.033 1.937-0.088 2.626-0.167 0.691-0.077 1.263-0.187 1.717-0.326v1.473c0.547-0.519 1.036-0.896 1.469-1.126s0.855-0.347 1.267-0.347c0.546 0 1.006 0.191 1.381 0.574s0.561 0.855 0.561 1.419c0 0.463-0.123 0.845-0.366 1.149-0.245 0.302-0.548 0.454-0.909 0.454-0.313 0-0.569-0.118-0.771-0.353-0.202-0.236-0.316-0.55-0.341-0.946v-0.151c-0.050-0.89-0.213-1.335-0.491-1.335-0.193 0-0.449 0.113-0.767 0.34s-0.663 0.54-1.033 0.942v4.315z"></path>
        </symbol>
        <symbol id="icon-pillar-logo-Only" viewBox="0 0 32 32">
            <title>Pillar-Logo-Only</title>
            <path fill="#12a6c2" style="fill: var(--color2, #12a6c2)" d="M31.625 29.475l-2.177-3.756h-21.953l1.174-1.883h19.689l-2.415-4.165c0.001 0.002 0.005 0.008 0.005 0.008h-19.891l-5.681 9.797h31.25z"></path>
            <path fill="#12a6c2" style="fill: var(--color2, #12a6c2)" d="M21.226 11.535l-5.222-9.011-5.921 10.21h4.821c0.099-0.654 0.519-1.144 1.023-1.144 0.577 0 1.046 0.644 1.046 1.439 0 0.759-0.508 1.514-1.227 1.514h-6.711l-1.986 3.424h10.542c3.464 0 4.989-4.116 3.635-6.431z"></path>
        </symbol>

    </defs>
</svg>