<?xml version="1.0" encoding="UTF-8" standalone="no"?><!DOCTYPE svg PUBLIC "-//W3C//DTD SVG 1.1//EN" "http://www.w3.org/Graphics/SVG/1.1/DTD/svg11.dtd"><svg width="100%" height="100%" viewBox="0 0 58 58" version="1.1" xmlns="http://www.w3.org/2000/svg" xmlns:xlink="http://www.w3.org/1999/xlink" xml:space="preserve" xmlns:serif="http://www.serif.com/" style="fill-rule:evenodd;clip-rule:evenodd;stroke-linejoin:round;stroke-miterlimit:1.41421;"><g><g><path d="M46.5,14l-14,-14l-31,0l0,58l45,0l0,-44Z" style="fill:#fff;fill-rule:nonzero;"/><g><path d="M11.5,23l25,0c0.552,0 1,-0.447 1,-1c0,-0.553 -0.448,-1 -1,-1l-25,0c-0.552,0 -1,0.447 -1,1c0,0.553 0.448,1 1,1Z" style="fill:#bbb;fill-rule:nonzero;"/><path d="M11.5,15l10,0c0.552,0 1,-0.447 1,-1c0,-0.553 -0.448,-1 -1,-1l-10,0c-0.552,0 -1,0.447 -1,1c0,0.553 0.448,1 1,1Z" style="fill:#bbb;fill-rule:nonzero;"/><path d="M36.5,29l-25,0c-0.552,0 -1,0.447 -1,1c0,0.553 0.448,1 1,1l25,0c0.552,0 1,-0.447 1,-1c0,-0.553 -0.448,-1 -1,-1Z" style="fill:#bbb;fill-rule:nonzero;"/><path d="M36.5,37l-25,0c-0.552,0 -1,0.447 -1,1c0,0.553 0.448,1 1,1l25,0c0.552,0 1,-0.447 1,-1c0,-0.553 -0.448,-1 -1,-1Z" style="fill:#bbb;fill-rule:nonzero;"/><path d="M36.5,45l-25,0c-0.552,0 -1,0.447 -1,1c0,0.553 0.448,1 1,1l25,0c0.552,0 1,-0.447 1,-1c0,-0.553 -0.448,-1 -1,-1Z" style="fill:#bbb;fill-rule:nonzero;"/></g><path d="M32.5,0l0,14l14,0l-14,-14Z" style="fill:#bbb;fill-rule:nonzero;"/></g><rect x="34.5" y="36" width="22" height="22" style="fill:#c00;"/><g><path d="M51.136,40.8l-4.509,0c-0.311,0 -0.563,0.253 -0.563,0.564c0,0.311 0.252,0.564 0.563,0.564l3.148,0l-5.801,5.801c-0.22,0.22 -0.22,0.577 0,0.797c0.11,0.11 0.255,0.165 0.399,0.165c0.144,0 0.288,-0.055 0.398,-0.165l5.801,-5.801l0,3.148c0,0.311 0.253,0.563 0.564,0.563c0.311,0 0.564,-0.252 0.564,-0.563l0,-4.509c0,-0.311 -0.253,-0.564 -0.564,-0.564Z" style="fill:#fff;fill-rule:nonzero;"/><path d="M48.882,46.436c-0.312,0 -0.564,0.253 -0.564,0.564l0,5.072l-7.89,0l0,-7.89l5.072,0c0.311,0 0.564,-0.252 0.564,-0.564c0,-0.311 -0.253,-0.563 -0.564,-0.563l-5.636,0c-0.311,0 -0.564,0.252 -0.564,0.563l0,9.018c0,0.311 0.253,0.564 0.564,0.564l9.018,0c0.311,0 0.563,-0.253 0.563,-0.564l0,-5.636c0,-0.311 -0.252,-0.564 -0.563,-0.564Z" style="fill:#fff;fill-rule:nonzero;"/></g></g></svg>