<?xml version="1.0" encoding="UTF-8" standalone="no"?><!DOCTYPE svg PUBLIC "-//W3C//DTD SVG 1.1//EN" "http://www.w3.org/Graphics/SVG/1.1/DTD/svg11.dtd"><svg width="100%" height="100%" viewBox="0 0 58 58" version="1.1" xmlns="http://www.w3.org/2000/svg" xmlns:xlink="http://www.w3.org/1999/xlink" xml:space="preserve" xmlns:serif="http://www.serif.com/" style="fill-rule:evenodd;clip-rule:evenodd;stroke-linejoin:round;stroke-miterlimit:1.41421;"><g><g><path d="M46.5,14l-14,-14l-31,0l0,58l45,0l0,-44Z" style="fill:#fff;fill-rule:nonzero;"/><g><path d="M11.5,23l25,0c0.552,0 1,-0.447 1,-1c0,-0.553 -0.448,-1 -1,-1l-25,0c-0.552,0 -1,0.447 -1,1c0,0.553 0.448,1 1,1Z" style="fill:#bbb;fill-rule:nonzero;"/><path d="M11.5,15l10,0c0.552,0 1,-0.447 1,-1c0,-0.553 -0.448,-1 -1,-1l-10,0c-0.552,0 -1,0.447 -1,1c0,0.553 0.448,1 1,1Z" style="fill:#bbb;fill-rule:nonzero;"/><path d="M36.5,29l-25,0c-0.552,0 -1,0.447 -1,1c0,0.553 0.448,1 1,1l25,0c0.552,0 1,-0.447 1,-1c0,-0.553 -0.448,-1 -1,-1Z" style="fill:#bbb;fill-rule:nonzero;"/><path d="M36.5,37l-25,0c-0.552,0 -1,0.447 -1,1c0,0.553 0.448,1 1,1l25,0c0.552,0 1,-0.447 1,-1c0,-0.553 -0.448,-1 -1,-1Z" style="fill:#bbb;fill-rule:nonzero;"/><path d="M36.5,45l-25,0c-0.552,0 -1,0.447 -1,1c0,0.553 0.448,1 1,1l25,0c0.552,0 1,-0.447 1,-1c0,-0.553 -0.448,-1 -1,-1Z" style="fill:#bbb;fill-rule:nonzero;"/></g><path d="M32.5,0l0,14l14,0l-14,-14Z" style="fill:#bbb;fill-rule:nonzero;"/></g><rect x="34.5" y="36" width="22" height="22" style="fill:#c00;"/><path d="M50.934,52.04c1.128,-1.271 1.815,-2.942 1.815,-4.772c0,-1.903 -0.744,-3.635 -1.954,-4.924c-0.001,-0.002 -0.003,-0.002 -0.004,-0.004c-1.261,-1.34 -3.027,-2.198 -4.992,-2.265l-0.001,-0.001l-0.14,-0.003c-0.036,-0.002 -0.073,-0.003 -0.109,-0.003c-0.037,0 -0.073,0.001 -0.109,0.003l-0.14,0.003l0,0.001c-1.965,0.067 -3.732,0.925 -4.993,2.265c-0.001,0.002 -0.002,0.002 -0.003,0.004c-1.211,1.289 -1.955,3.021 -1.955,4.924c0,1.83 0.687,3.501 1.815,4.772c0.002,0.003 0.002,0.005 0.004,0.007c0.004,0.007 0.011,0.01 0.015,0.015c1.268,1.417 3.087,2.33 5.117,2.4l0.14,0.004c0.036,0.001 0.072,0.002 0.109,0.002c0.036,0 0.073,-0.001 0.109,-0.002l0.14,-0.004c2.032,-0.07 3.853,-0.985 5.121,-2.405c0.003,-0.004 0.008,-0.005 0.011,-0.01c0.002,-0.002 0.002,-0.004 0.004,-0.007Zm-12.082,-4.524l2.98,0c0.028,1.053 0.233,2.075 0.599,3.034c-0.706,0.255 -1.381,0.598 -2.013,1.025c-0.931,-1.106 -1.51,-2.517 -1.566,-4.059Zm1.701,-4.711c0.618,0.402 1.276,0.723 1.962,0.964c-0.421,1.019 -0.653,2.119 -0.683,3.251l-2.98,0c0.059,-1.616 0.692,-3.087 1.701,-4.215Zm11.693,4.215l-2.98,0c-0.03,-1.132 -0.263,-2.232 -0.683,-3.251c0.686,-0.241 1.344,-0.562 1.962,-0.964c1.009,1.128 1.642,2.599 1.701,4.215Zm-6.945,-3.237c-0.718,-0.02 -1.423,-0.127 -2.103,-0.318c0.503,-1.033 1.213,-1.965 2.103,-2.74l0,3.058Zm0,0.497l0,2.74l-2.973,0c0.031,-1.08 0.257,-2.127 0.662,-3.097c0.747,0.216 1.521,0.336 2.311,0.357Zm0.496,0c0.79,-0.021 1.564,-0.141 2.311,-0.357c0.405,0.97 0.631,2.017 0.662,3.097l-2.973,0l0,-2.74Zm0,-0.497l0,-3.058c0.89,0.775 1.6,1.707 2.103,2.74c-0.68,0.191 -1.385,0.298 -2.103,0.318Zm2.585,-0.469c-0.477,-1 -1.139,-1.91 -1.959,-2.69c1.454,0.19 2.762,0.847 3.77,1.816c-0.572,0.363 -1.179,0.655 -1.811,0.874Zm-5.666,0c-0.632,-0.219 -1.239,-0.511 -1.811,-0.874c1.008,-0.969 2.316,-1.626 3.77,-1.816c-0.82,0.78 -1.482,1.69 -1.959,2.69Zm-0.388,4.202l2.973,0l0,2.493c-0.821,0.021 -1.626,0.15 -2.399,0.382c-0.349,-0.907 -0.546,-1.877 -0.574,-2.875Zm2.973,2.989l0,3.307c-0.952,-0.831 -1.698,-1.84 -2.206,-2.959c0.712,-0.21 1.451,-0.327 2.206,-0.348Zm0.496,3.307l0,-3.307c0.755,0.021 1.494,0.138 2.206,0.348c-0.508,1.119 -1.254,2.128 -2.206,2.959Zm0,-3.803l0,-2.493l2.973,0c-0.028,0.998 -0.225,1.968 -0.574,2.875c-0.773,-0.232 -1.578,-0.361 -2.399,-0.382Zm3.469,-2.493l2.98,0c-0.056,1.542 -0.635,2.953 -1.566,4.059c-0.632,-0.427 -1.307,-0.77 -2.013,-1.025c0.366,-0.959 0.571,-1.981 0.599,-3.034Zm-8.511,4.431c0.587,-0.39 1.213,-0.704 1.866,-0.939c0.483,1.083 1.176,2.069 2.054,2.905c-1.527,-0.2 -2.894,-0.915 -3.92,-1.966Zm5.668,1.966c0.878,-0.835 1.571,-1.822 2.054,-2.905c0.653,0.235 1.278,0.549 1.866,0.939c-1.026,1.051 -2.393,1.766 -3.92,1.966Z" style="fill:#fff;fill-rule:nonzero;stroke:#fff;stroke-width:0.5px;"/></g></svg>